RobotoDelta-XOPQmin.ufo
<glyph name="exclam" format="1">
  <advance width="475"/>
  <unicode hex="0021"/>
  <outline>
    <contour>
      <point x="221" y="411" type="line"/>
      <point x="209" y="1456" type="line"/>
      <point x="265" y="1456" type="line"/>
      <point x="254" y="411" type="line"/>
    </contour>
    <contour>
      <point x="189" y="94" type="qcurve" smooth="yes"/>
      <point x="189" y="164"/>
      <point x="225" y="212"/>
      <point x="237" y="212" type="qcurve" smooth="yes"/>
      <point x="248" y="212"/>
      <point x="286" y="163"/>
      <point x="286" y="94" type="qcurve" smooth="yes"/>
      <point x="286" y="26"/>
      <point x="248" y="-22"/>
      <point x="237" y="-22" type="qcurve" smooth="yes"/>
      <point x="225" y="-22"/>
      <point x="189" y="26"/>
    </contour>
  </outline>
</glyph>
<glyph name="quotedbl" format="1">
  <advance width="555"/>
  <unicode hex="0022"/>
  <outline>
    <contour>
      <point x="110" y="963" type="line"/>
      <point x="100" y="1274" type="line"/>
      <point x="100" y="1456" type="line"/>
      <point x="150" y="1456" type="line"/>
      <point x="150" y="1284" type="line"/>
      <point x="139" y="963" type="line"/>
    </contour>
    <contour>
      <point x="415" y="963" type="line"/>
      <point x="405" y="1281" type="line"/>
      <point x="405" y="1456" type="line"/>
      <point x="455" y="1456" type="line"/>
      <point x="455" y="1284" type="line"/>
      <point x="444" y="963" type="line"/>
    </contour>
  </outline>
</glyph>
<glyph name="percent" format="1">
  <advance width="1428"/>
  <unicode hex="0025"/>
  <outline>
    <contour>
      <point x="64" y="982" type="qcurve" smooth="yes"/>
      <point x="64" y="1169" type="line" smooth="yes"/>
      <point x="64" y="1317"/>
      <point x="201" y="1485"/>
      <point x="293" y="1485" type="qcurve" smooth="yes"/>
      <point x="388" y="1485"/>
      <point x="523" y="1317"/>
      <point x="523" y="1169" type="qcurve" smooth="yes"/>
      <point x="523" y="982" type="line" smooth="yes"/>
      <point x="523" y="835"/>
      <point x="388" y="668"/>
      <point x="295" y="668" type="qcurve" smooth="yes"/>
      <point x="202" y="668"/>
      <point x="64" y="835"/>
    </contour>
    <contour>
      <point x="104" y="987" type="line" smooth="yes"/>
      <point x="104" y="957"/>
      <point x="177" y="828"/>
      <point x="295" y="828" type="qcurve" smooth="yes"/>
      <point x="414" y="828"/>
      <point x="484" y="957"/>
      <point x="484" y="987" type="qcurve" smooth="yes"/>
      <point x="484" y="1164" type="line" smooth="yes"/>
      <point x="484" y="1195"/>
      <point x="411" y="1325"/>
      <point x="293" y="1325" type="qcurve" smooth="yes"/>
      <point x="176" y="1325"/>
      <point x="104" y="1195"/>
      <point x="104" y="1164" type="qcurve" smooth="yes"/>
    </contour>
    <contour>
      <point x="1107" y="1415" type="line"/>
      <point x="356" y="-8" type="line"/>
      <point x="314" y="23" type="line"/>
      <point x="1066" y="1446" type="line"/>
    </contour>
    <contour>
      <point x="905" y="291" type="qcurve" smooth="yes"/>
      <point x="905" y="478" type="line" smooth="yes"/>
      <point x="905" y="626"/>
      <point x="1042" y="794"/>
      <point x="1134" y="794" type="qcurve" smooth="yes"/>
      <point x="1229" y="794"/>
      <point x="1364" y="626"/>
      <point x="1364" y="478" type="qcurve" smooth="yes"/>
      <point x="1364" y="291" type="line" smooth="yes"/>
      <point x="1364" y="144"/>
      <point x="1229" y="-23"/>
      <point x="1136" y="-23" type="qcurve" smooth="yes"/>
      <point x="1043" y="-23"/>
      <point x="905" y="144"/>
    </contour>
    <contour>
      <point x="944" y="296" type="line" smooth="yes"/>
      <point x="944" y="266"/>
      <point x="1017" y="137"/>
      <point x="1136" y="137" type="qcurve" smooth="yes"/>
      <point x="1254" y="137"/>
      <point x="1325" y="266"/>
      <point x="1325" y="296" type="qcurve" smooth="yes"/>
      <point x="1325" y="473" type="line" smooth="yes"/>
      <point x="1325" y="504"/>
      <point x="1252" y="634"/>
      <point x="1134" y="634" type="qcurve" smooth="yes"/>
      <point x="1016" y="634"/>
      <point x="944" y="504"/>
      <point x="944" y="473" type="qcurve" smooth="yes"/>
    </contour>
  </outline>
</glyph>
<glyph name="ampersand" format="1">
  <advance width="1005"/>
  <unicode hex="0026"/>
  <outline>
    <contour>
      <point x="102" y="392" type="qcurve" smooth="yes"/>
      <point x="102" y="549"/>
      <point x="238" y="720"/>
      <point x="350" y="811" type="qcurve" smooth="yes"/>
      <point x="507" y="942" type="line" smooth="yes"/>
      <point x="591" y="1012"/>
      <point x="662" y="1116"/>
      <point x="662" y="1169" type="qcurve" smooth="yes"/>
      <point x="662" y="1209"/>
      <point x="568" y="1325"/>
      <point x="457" y="1325" type="qcurve" smooth="yes"/>
      <point x="343" y="1325"/>
      <point x="252" y="1185"/>
      <point x="252" y="1129" type="qcurve" smooth="yes"/>
      <point x="252" y="1085"/>
      <point x="342" y="922"/>
      <point x="407" y="834" type="qcurve" smooth="yes"/>
      <point x="998" y="0" type="line"/>
      <point x="889" y="0" type="line"/>
      <point x="414" y="668" type="line" smooth="yes"/>
      <point x="319" y="798"/>
      <point x="203" y="989"/>
      <point x="203" y="1123" type="qcurve" smooth="yes"/>
      <point x="203" y="1310"/>
      <point x="357" y="1476"/>
      <point x="458" y="1476" type="qcurve" smooth="yes"/>
      <point x="556" y="1476"/>
      <point x="698" y="1311"/>
      <point x="698" y="1169" type="qcurve" smooth="yes"/>
      <point x="698" y="1042"/>
      <point x="614" y="911"/>
      <point x="571" y="873" type="qcurve" smooth="yes"/>
      <point x="325" y="658" type="line" smooth="yes"/>
      <point x="199" y="549"/>
      <point x="150" y="394"/>
      <point x="150" y="392" type="qcurve" smooth="yes"/>
      <point x="150" y="306"/>
      <point x="286" y="132"/>
      <point x="447" y="132" type="qcurve" smooth="yes"/>
      <point x="628" y="132"/>
      <point x="879" y="451"/>
      <point x="879" y="672" type="qcurve"/>
      <point x="911" y="672" type="line"/>
      <point x="911" y="493"/>
      <point x="843" y="264"/>
      <point x="770" y="178" type="qcurve" smooth="yes"/>
      <point x="758" y="164"/>
      <point x="750" y="140"/>
      <point x="746" y="135" type="qcurve" smooth="yes"/>
      <point x="686" y="59"/>
      <point x="504" y="-20"/>
      <point x="447" y="-20" type="qcurve" smooth="yes"/>
      <point x="302" y="-20"/>
      <point x="102" y="195"/>
    </contour>
  </outline>
</glyph>
<glyph name="parenleft" format="1">
  <advance width="510"/>
  <unicode hex="0028"/>
  <outline>
    <contour>
      <point x="474" y="-378" type="line"/>
      <point x="451" y="-363"/>
      <point x="124" y="76"/>
      <point x="124" y="532" type="qcurve" smooth="yes"/>
      <point x="124" y="542" type="line" smooth="yes"/>
      <point x="124" y="996"/>
      <point x="451" y="1418"/>
      <point x="474" y="1433" type="qcurve"/>
      <point x="474" y="1308" type="line"/>
      <point x="384" y="1241"/>
      <point x="181" y="868"/>
      <point x="181" y="544" type="qcurve" smooth="yes"/>
      <point x="181" y="520" type="line" smooth="yes"/>
      <point x="181" y="188"/>
      <point x="384" y="-181"/>
      <point x="474" y="-254" type="qcurve"/>
    </contour>
  </outline>
</glyph>
<glyph name="asterisk" format="1">
  <advance width="798"/>
  <unicode hex="002A"/>
  <outline>
    <contour>
      <point x="64" y="1045" type="line"/>
      <point x="104" y="1206" type="line"/>
      <point x="382" y="1045" type="line"/>
      <point x="353" y="1477" type="line"/>
      <point x="420" y="1477" type="line"/>
      <point x="388" y="1041" type="line"/>
      <point x="665" y="1199" type="line"/>
      <point x="704" y="1034" type="line"/>
      <point x="430" y="959" type="line"/>
      <point x="623" y="673" type="line"/>
      <point x="545" y="600" type="line"/>
      <point x="378" y="972" type="line"/>
      <point x="217" y="607" type="line"/>
      <point x="138" y="679" type="line"/>
      <point x="332" y="969" type="line"/>
    </contour>
  </outline>
</glyph>
<glyph name="plus" format="1">
  <advance width="876"/>
  <unicode hex="002B"/>
  <outline>
    <contour>
      <point x="86" y="591" type="line"/>
      <point x="86" y="757" type="line"/>
      <point x="790" y="757" type="line"/>
      <point x="790" y="591" type="line"/>
    </contour>
    <contour>
      <point x="412" y="146" type="line"/>
      <point x="412" y="1206" type="line"/>
      <point x="464" y="1206" type="line"/>
      <point x="464" y="146" type="line"/>
    </contour>
  </outline>
</glyph>
<glyph name="comma" format="1">
  <advance width="443"/>
  <unicode hex="002C"/>
  <outline>
    <contour>
      <point x="99" y="-220" type="line"/>
      <point x="146" y="-138"/>
      <point x="192" y="15"/>
      <point x="192" y="68" type="qcurve" smooth="yes"/>
      <point x="192" y="220" type="line"/>
      <point x="242" y="220" type="line"/>
      <point x="242" y="71" type="line" smooth="yes"/>
      <point x="242" y="-45"/>
      <point x="175" y="-232"/>
      <point x="146" y="-261" type="qcurve"/>
    </contour>
  </outline>
</glyph>
<glyph name="hyphen" format="1">
  <advance width="435"/>
  <unicode hex="002D"/>
  <outline>
    <contour>
      <point x="38" y="543" type="line"/>
      <point x="38" y="715" type="line"/>
      <point x="397" y="715" type="line"/>
      <point x="397" y="543" type="line"/>
    </contour>
  </outline>
</glyph>
<glyph name="period" format="1">
  <advance width="434"/>
  <unicode hex="002E"/>
  <outline>
    <contour>
      <point x="161" y="101" type="qcurve" smooth="yes"/>
      <point x="161" y="171"/>
      <point x="201" y="225"/>
      <point x="217" y="225" type="qcurve" smooth="yes"/>
      <point x="233" y="225"/>
      <point x="273" y="171"/>
      <point x="273" y="101" type="qcurve" smooth="yes"/>
      <point x="273" y="32"/>
      <point x="233" y="-22"/>
      <point x="217" y="-22" type="qcurve" smooth="yes"/>
      <point x="201" y="-22"/>
      <point x="161" y="32"/>
    </contour>
  </outline>
</glyph>
<glyph name="slash" format="1">
  <advance width="373"/>
  <unicode hex="002F"/>
  <outline>
    <contour>
      <point x="-102" y="-125" type="line"/>
      <point x="415" y="1456" type="line"/>
      <point x="475" y="1456" type="line"/>
      <point x="-41" y="-125" type="line"/>
    </contour>
  </outline>
</glyph>
<glyph name="zero" format="1">
  <advance width="907"/>
  <unicode hex="0030"/>
  <outline>
    <contour>
      <point x="110" y="440" type="qcurve" smooth="yes"/>
      <point x="110" y="1007" type="line" smooth="yes"/>
      <point x="110" y="1246"/>
      <point x="310" y="1479"/>
      <point x="452" y="1479" type="qcurve" smooth="yes"/>
      <point x="597" y="1479"/>
      <point x="797" y="1246"/>
      <point x="797" y="1007" type="qcurve" smooth="yes"/>
      <point x="797" y="440" type="line" smooth="yes"/>
      <point x="797" y="201"/>
      <point x="597" y="-30"/>
      <point x="454" y="-30" type="qcurve" smooth="yes"/>
      <point x="310" y="-30"/>
      <point x="110" y="201"/>
    </contour>
    <contour>
      <point x="166" y="428" type="line" smooth="yes"/>
      <point x="166" y="342"/>
      <point x="278" y="124"/>
      <point x="454" y="124" type="qcurve" smooth="yes"/>
      <point x="630" y="124"/>
      <point x="741" y="348"/>
      <point x="741" y="428" type="qcurve" smooth="yes"/>
      <point x="741" y="1019" type="line" smooth="yes"/>
      <point x="741" y="1105"/>
      <point x="628" y="1323"/>
      <point x="452" y="1323" type="qcurve" smooth="yes"/>
      <point x="276" y="1323"/>
      <point x="166" y="1099"/>
      <point x="166" y="1019" type="qcurve" smooth="yes"/>
    </contour>
  </outline>
</glyph>
<glyph name="two" format="1">
  <advance width="901"/>
  <unicode hex="0032"/>
  <outline>
    <contour>
      <point x="102" y="0" type="line"/>
      <point x="102" y="153" type="line"/>
      <point x="517" y="674" type="line" smooth="yes"/>
      <point x="629" y="815"/>
      <point x="731" y="995"/>
      <point x="731" y="1072" type="qcurve" smooth="yes"/>
      <point x="731" y="1155"/>
      <point x="604" y="1324"/>
      <point x="451" y="1324" type="qcurve" smooth="yes"/>
      <point x="312" y="1324"/>
      <point x="160" y="1144"/>
      <point x="160" y="1037" type="qcurve" smooth="yes"/>
      <point x="160" y="1028" type="line"/>
      <point x="111" y="1028" type="line"/>
      <point x="111" y="1035" type="line" smooth="yes"/>
      <point x="111" y="1235"/>
      <point x="317" y="1476"/>
      <point x="451" y="1476" type="qcurve" smooth="yes"/>
      <point x="592" y="1476"/>
      <point x="779" y="1265"/>
      <point x="779" y="1096" type="qcurve" smooth="yes"/>
      <point x="779" y="926"/>
      <point x="652" y="701"/>
      <point x="582" y="616" type="qcurve" smooth="yes"/>
      <point x="202" y="152" type="line"/>
      <point x="820" y="152" type="line"/>
      <point x="820" y="0" type="line"/>
    </contour>
  </outline>
</glyph>
<glyph name="three" format="1">
  <advance width="903"/>
  <unicode hex="0033"/>
  <outline>
    <contour>
      <point x="79" y="393" type="line"/>
      <point x="123" y="393" type="line"/>
      <point x="123" y="387" type="line" smooth="yes"/>
      <point x="123" y="281"/>
      <point x="277" y="125"/>
      <point x="429" y="125" type="qcurve" smooth="yes"/>
      <point x="580" y="125"/>
      <point x="736" y="279"/>
      <point x="736" y="400" type="qcurve" smooth="yes"/>
      <point x="736" y="529"/>
      <point x="565" y="681"/>
      <point x="400" y="681" type="qcurve" smooth="yes"/>
      <point x="355" y="681" type="line"/>
      <point x="355" y="836" type="line"/>
      <point x="391" y="836" type="line" smooth="yes"/>
      <point x="553" y="836"/>
      <point x="695" y="973"/>
      <point x="695" y="1078" type="qcurve" smooth="yes"/>
      <point x="695" y="1181"/>
      <point x="571" y="1324"/>
      <point x="431" y="1324" type="qcurve" smooth="yes"/>
      <point x="297" y="1324"/>
      <point x="158" y="1181"/>
      <point x="158" y="1091" type="qcurve" smooth="yes"/>
      <point x="158" y="1085" type="line"/>
      <point x="114" y="1085" type="line"/>
      <point x="114" y="1094" type="line" smooth="yes"/>
      <point x="114" y="1271"/>
      <point x="305" y="1479"/>
      <point x="431" y="1479" type="qcurve" smooth="yes"/>
      <point x="556" y="1479"/>
      <point x="741" y="1296"/>
      <point x="741" y="1101" type="qcurve" smooth="yes"/>
      <point x="741" y="976"/>
      <point x="663" y="812"/>
      <point x="571" y="766" type="qcurve"/>
      <point x="656" y="740"/>
      <point x="785" y="582"/>
      <point x="785" y="404" type="qcurve" smooth="yes"/>
      <point x="785" y="181"/>
      <point x="565" y="-30"/>
      <point x="429" y="-30" type="qcurve" smooth="yes"/>
      <point x="292" y="-30"/>
      <point x="79" y="176"/>
      <point x="79" y="386" type="qcurve" smooth="yes"/>
    </contour>
  </outline>
</glyph>
<glyph name="four" format="1">
  <advance width="888"/>
  <unicode hex="0034"/>
  <outline>
    <contour>
      <point x="624" y="0" type="line"/>
      <point x="624" y="401" type="line"/>
      <point x="624" y="418" type="line"/>
      <point x="624" y="1149" type="line"/>
      <point x="518" y="1149" type="line"/>
      <point x="141" y="500" type="line"/>
      <point x="625" y="500" type="line"/>
      <point x="649" y="500" type="line"/>
      <point x="841" y="500" type="line"/>
      <point x="841" y="348" type="line"/>
      <point x="53" y="348" type="line"/>
      <point x="53" y="490" type="line"/>
      <point x="627" y="1456" type="line"/>
      <point x="665" y="1456" type="line"/>
      <point x="665" y="0" type="line"/>
    </contour>
  </outline>
</glyph>
<glyph name="five" format="1">
  <advance width="905"/>
  <unicode hex="0035"/>
  <outline>
    <contour>
      <point x="101" y="373" type="line"/>
      <point x="149" y="373" type="line"/>
      <point x="149" y="371" type="line" smooth="yes"/>
      <point x="149" y="265"/>
      <point x="305" y="122"/>
      <point x="449" y="122" type="qcurve" smooth="yes"/>
      <point x="599" y="122"/>
      <point x="753" y="319"/>
      <point x="753" y="462" type="qcurve" smooth="yes"/>
      <point x="753" y="595"/>
      <point x="590" y="788"/>
      <point x="454" y="788" type="qcurve" smooth="yes"/>
      <point x="325" y="788"/>
      <point x="212" y="726"/>
      <point x="187" y="696" type="qcurve"/>
      <point x="140" y="723" type="line"/>
      <point x="203" y="1456" type="line"/>
      <point x="740" y="1456" type="line"/>
      <point x="740" y="1285" type="line"/>
      <point x="231" y="1285" type="line"/>
      <point x="187" y="801" type="line"/>
      <point x="315" y="902"/>
      <point x="433" y="952"/>
      <point x="473" y="952" type="qcurve" smooth="yes"/>
      <point x="596" y="952"/>
      <point x="801" y="694"/>
      <point x="801" y="464" type="qcurve" smooth="yes"/>
      <point x="801" y="234"/>
      <point x="603" y="-30"/>
      <point x="463" y="-30" type="qcurve" smooth="yes"/>
      <point x="333" y="-30"/>
      <point x="101" y="156"/>
      <point x="101" y="371" type="qcurve" smooth="yes"/>
    </contour>
  </outline>
</glyph>
<glyph name="six" format="1">
  <advance width="898"/>
  <unicode hex="0036"/>
  <outline>
    <contour>
      <point x="89" y="627" type="qcurve" smooth="yes"/>
      <point x="89" y="656" type="line" smooth="yes"/>
      <point x="89" y="1057"/>
      <point x="413" y="1478"/>
      <point x="687" y="1478" type="qcurve" smooth="yes"/>
      <point x="720" y="1478" type="line"/>
      <point x="720" y="1321" type="line"/>
      <point x="656" y="1321" type="line" smooth="yes"/>
      <point x="458" y="1321"/>
      <point x="144" y="1037"/>
      <point x="144" y="652" type="qcurve" smooth="yes"/>
      <point x="144" y="603" type="line" smooth="yes"/>
      <point x="144" y="348"/>
      <point x="321" y="122"/>
      <point x="467" y="122" type="qcurve" smooth="yes"/>
      <point x="613" y="122"/>
      <point x="765" y="312"/>
      <point x="765" y="466" type="qcurve" smooth="yes"/>
      <point x="765" y="626"/>
      <point x="605" y="802"/>
      <point x="470" y="802" type="qcurve" smooth="yes"/>
      <point x="343" y="802"/>
      <point x="161" y="645"/>
      <point x="132" y="521" type="qcurve"/>
      <point x="120" y="731" type="line"/>
      <point x="159" y="808"/>
      <point x="361" y="956"/>
      <point x="496" y="956" type="qcurve" smooth="yes"/>
      <point x="640" y="956"/>
      <point x="820" y="692"/>
      <point x="820" y="475" type="qcurve" smooth="yes"/>
      <point x="820" y="248"/>
      <point x="615" y="-30"/>
      <point x="470" y="-30" type="qcurve" smooth="yes"/>
      <point x="336" y="-30"/>
      <point x="89" y="239"/>
    </contour>
  </outline>
</glyph>
<glyph name="eight" format="1">
  <advance width="906"/>
  <unicode hex="0038"/>
  <outline>
    <contour>
      <point x="108" y="384" type="qcurve" smooth="yes"/>
      <point x="108" y="533"/>
      <point x="213" y="705"/>
      <point x="329" y="755" type="qcurve"/>
      <point x="329" y="739" type="line"/>
      <point x="237" y="793"/>
      <point x="148" y="946"/>
      <point x="148" y="1077" type="qcurve" smooth="yes"/>
      <point x="148" y="1283"/>
      <point x="338" y="1478"/>
      <point x="452" y="1478" type="qcurve" smooth="yes"/>
      <point x="568" y="1478"/>
      <point x="759" y="1283"/>
      <point x="759" y="1077" type="qcurve" smooth="yes"/>
      <point x="759" y="946"/>
      <point x="669" y="793"/>
      <point x="576" y="739" type="qcurve"/>
      <point x="576" y="754" type="line"/>
      <point x="691" y="703"/>
      <point x="798" y="532"/>
      <point x="798" y="384" type="qcurve" smooth="yes"/>
      <point x="798" y="169"/>
      <point x="587" y="-30"/>
      <point x="453" y="-30" type="qcurve" smooth="yes"/>
      <point x="319" y="-30"/>
      <point x="108" y="169"/>
    </contour>
    <contour>
      <point x="191" y="1074" type="qcurve" smooth="yes"/>
      <point x="191" y="980"/>
      <point x="321" y="825"/>
      <point x="453" y="825" type="qcurve" smooth="yes"/>
      <point x="584" y="825"/>
      <point x="715" y="980"/>
      <point x="715" y="1074" type="qcurve" smooth="yes"/>
      <point x="715" y="1163"/>
      <point x="583" y="1323"/>
      <point x="452" y="1323" type="qcurve" smooth="yes"/>
      <point x="322" y="1323"/>
      <point x="191" y="1168"/>
    </contour>
    <contour>
      <point x="154" y="390" type="qcurve" smooth="yes"/>
      <point x="154" y="282"/>
      <point x="307" y="124"/>
      <point x="453" y="124" type="qcurve" smooth="yes"/>
      <point x="600" y="124"/>
      <point x="753" y="282"/>
      <point x="753" y="390" type="qcurve" smooth="yes"/>
      <point x="753" y="493"/>
      <point x="595" y="665"/>
      <point x="452" y="665" type="qcurve" smooth="yes"/>
      <point x="306" y="665"/>
      <point x="154" y="493"/>
    </contour>
  </outline>
</glyph>
<glyph name="nine" format="1">
  <advance width="898"/>
  <unicode hex="0039"/>
  <outline>
    <contour>
      <point x="65" y="995" type="qcurve" smooth="yes"/>
      <point x="65" y="1212"/>
      <point x="271" y="1478"/>
      <point x="417" y="1478" type="qcurve" smooth="yes"/>
      <point x="551" y="1478"/>
      <point x="801" y="1209"/>
      <point x="801" y="821" type="qcurve" smooth="yes"/>
      <point x="801" y="792" type="line" smooth="yes"/>
      <point x="801" y="391"/>
      <point x="473" y="-30"/>
      <point x="200" y="-30" type="qcurve" smooth="yes"/>
      <point x="241" y="-30" type="line"/>
      <point x="241" y="127" type="line"/>
      <point x="212" y="127" type="line" smooth="yes"/>
      <point x="454" y="127"/>
      <point x="751" y="425"/>
      <point x="751" y="796" type="qcurve" smooth="yes"/>
      <point x="751" y="845" type="line" smooth="yes"/>
      <point x="751" y="1077"/>
      <point x="584" y="1326"/>
      <point x="420" y="1326" type="qcurve" smooth="yes"/>
      <point x="260" y="1326"/>
      <point x="114" y="1127"/>
      <point x="114" y="1004" type="qcurve" smooth="yes"/>
      <point x="114" y="881"/>
      <point x="264" y="689"/>
      <point x="417" y="689" type="qcurve" smooth="yes"/>
      <point x="564" y="689"/>
      <point x="735" y="871"/>
      <point x="757" y="1048" type="qcurve"/>
      <point x="669" y="1053" type="line"/>
      <point x="667" y="817" type="line"/>
      <point x="630" y="671"/>
      <point x="479" y="535"/>
      <point x="391" y="535" type="qcurve" smooth="yes"/>
      <point x="246" y="535"/>
      <point x="65" y="787"/>
    </contour>
  </outline>
</glyph>
<glyph name="less" format="1">
  <advance width="912"/>
  <unicode hex="003C"/>
  <outline>
    <contour>
      <point x="732" y="241" type="line"/>
      <point x="172" y="566" type="line"/>
      <point x="172" y="729" type="line"/>
      <point x="732" y="1053" type="line"/>
      <point x="732" y="901" type="line"/>
      <point x="265" y="645" type="line"/>
      <point x="732" y="393" type="line"/>
    </contour>
  </outline>
</glyph>
<glyph name="B" format="1">
  <advance width="1003"/>
  <unicode hex="0042"/>
  <outline>
    <contour>
      <point x="170" y="0" type="line"/>
      <point x="170" y="1456" type="line"/>
      <point x="521" y="1456" type="line" smooth="yes"/>
      <point x="672" y="1456"/>
      <point x="870" y="1285"/>
      <point x="870" y="1068" type="qcurve" smooth="yes"/>
      <point x="870" y="935"/>
      <point x="781" y="797"/>
      <point x="687" y="761" type="qcurve"/>
      <point x="687" y="772" type="line"/>
      <point x="782" y="743"/>
      <point x="903" y="583"/>
      <point x="903" y="420" type="qcurve" smooth="yes"/>
      <point x="903" y="201"/>
      <point x="696" y="0"/>
      <point x="549" y="0" type="qcurve" smooth="yes"/>
    </contour>
    <contour>
      <point x="225" y="836" type="line"/>
      <point x="526" y="836" type="line" smooth="yes"/>
      <point x="669" y="836"/>
      <point x="815" y="976"/>
      <point x="815" y="1070" type="qcurve" smooth="yes"/>
      <point x="815" y="1173"/>
      <point x="680" y="1298"/>
      <point x="521" y="1298" type="qcurve" smooth="yes"/>
      <point x="225" y="1298" type="line"/>
    </contour>
    <contour>
      <point x="225" y="157" type="line"/>
      <point x="549" y="157" type="line" smooth="yes"/>
      <point x="704" y="157"/>
      <point x="849" y="317"/>
      <point x="849" y="418" type="qcurve" smooth="yes"/>
      <point x="849" y="519"/>
      <point x="720" y="681"/>
      <point x="557" y="681" type="qcurve" smooth="yes"/>
      <point x="225" y="681" type="line"/>
    </contour>
  </outline>
</glyph>
<glyph name="C" format="1">
  <advance width="1046"/>
  <unicode hex="0043"/>
  <outline>
    <contour>
      <point x="115" y="655" type="qcurve" smooth="yes"/>
      <point x="115" y="800" type="line" smooth="yes"/>
      <point x="115" y="1132"/>
      <point x="391" y="1486"/>
      <point x="575" y="1486" type="qcurve" smooth="yes"/>
      <point x="765" y="1486"/>
      <point x="970" y="1229"/>
      <point x="992" y="1030" type="qcurve" smooth="yes"/>
      <point x="996" y="989" type="line"/>
      <point x="934" y="989" type="line"/>
      <point x="937" y="964" type="line" smooth="yes"/>
      <point x="922" y="1105"/>
      <point x="782" y="1318"/>
      <point x="575" y="1318" type="qcurve" smooth="yes"/>
      <point x="369" y="1318"/>
      <point x="174" y="1010"/>
      <point x="174" y="802" type="qcurve" smooth="yes"/>
      <point x="174" y="655" type="line" smooth="yes"/>
      <point x="174" y="474"/>
      <point x="365" y="137"/>
      <point x="573" y="137" type="qcurve" smooth="yes"/>
      <point x="756" y="137"/>
      <point x="919" y="321"/>
      <point x="937" y="488" type="qcurve" smooth="yes"/>
      <point x="934" y="463" type="line"/>
      <point x="996" y="463" type="line"/>
      <point x="992" y="422" type="line" smooth="yes"/>
      <point x="972" y="235"/>
      <point x="753" y="-30"/>
      <point x="573" y="-30" type="qcurve" smooth="yes"/>
      <point x="391" y="-30"/>
      <point x="115" y="327"/>
    </contour>
    <contour>
      <point x="582" y="0" type="move" name="bottom"/>
    </contour>
  </outline>
</glyph>
<glyph name="D" format="1">
  <advance width="1097"/>
  <unicode hex="0044"/>
  <outline>
    <contour>
      <point x="170" y="0" type="line"/>
      <point x="170" y="1456" type="line"/>
      <point x="483" y="1456" type="line" smooth="yes"/>
      <point x="686" y="1456"/>
      <point x="982" y="1104"/>
      <point x="982" y="771" type="qcurve" smooth="yes"/>
      <point x="982" y="684" type="line" smooth="yes"/>
      <point x="982" y="351"/>
      <point x="685" y="0"/>
      <point x="467" y="0" type="qcurve" smooth="yes"/>
    </contour>
    <contour>
      <point x="225" y="157" type="line"/>
      <point x="467" y="157" type="line" smooth="yes"/>
      <point x="704" y="157"/>
      <point x="929" y="467"/>
      <point x="929" y="684" type="qcurve" smooth="yes"/>
      <point x="929" y="773" type="line" smooth="yes"/>
      <point x="929" y="1002"/>
      <point x="704" y="1298"/>
      <point x="483" y="1298" type="qcurve" smooth="yes"/>
      <point x="225" y="1298" type="line"/>
    </contour>
  </outline>
</glyph>
<glyph name="E" format="1">
  <advance width="915"/>
  <unicode hex="0045"/>
  <outline>
    <contour>
      <point x="170" y="0" type="line"/>
      <point x="170" y="1456" type="line"/>
      <point x="839" y="1456" type="line"/>
      <point x="839" y="1298" type="line"/>
      <point x="225" y="1298" type="line"/>
      <point x="225" y="830" type="line"/>
      <point x="760" y="830" type="line"/>
      <point x="760" y="673" type="line"/>
      <point x="225" y="673" type="line"/>
      <point x="225" y="157" type="line"/>
      <point x="847" y="157" type="line"/>
      <point x="847" y="0" type="line"/>
    </contour>
    <contour>
      <point x="509" y="1432" type="move" name="top"/>
    </contour>
  </outline>
</glyph>
<glyph name="F" format="1">
  <advance width="887"/>
  <unicode hex="0046"/>
  <outline>
    <contour>
      <point x="170" y="0" type="line"/>
      <point x="170" y="1456" type="line"/>
      <point x="828" y="1456" type="line"/>
      <point x="828" y="1298" type="line"/>
      <point x="225" y="1298" type="line"/>
      <point x="225" y="801" type="line"/>
      <point x="743" y="801" type="line"/>
      <point x="743" y="643" type="line"/>
      <point x="225" y="643" type="line"/>
      <point x="225" y="0" type="line"/>
    </contour>
  </outline>
</glyph>
<glyph name="G" format="1">
  <advance width="1080"/>
  <unicode hex="0047"/>
  <outline>
    <contour>
      <point x="115" y="672" type="qcurve" smooth="yes"/>
      <point x="115" y="785" type="line" smooth="yes"/>
      <point x="115" y="1129"/>
      <point x="385" y="1486"/>
      <point x="584" y="1486" type="qcurve" smooth="yes"/>
      <point x="754" y="1486"/>
      <point x="970" y="1245"/>
      <point x="994" y="1073" type="qcurve" smooth="yes"/>
      <point x="1000" y="1030" type="line"/>
      <point x="935" y="1030" type="line"/>
      <point x="932" y="1051" type="line" smooth="yes"/>
      <point x="919" y="1141"/>
      <point x="761" y="1328"/>
      <point x="584" y="1328" type="qcurve" smooth="yes"/>
      <point x="373" y="1328"/>
      <point x="173" y="1008"/>
      <point x="173" y="787" type="qcurve" smooth="yes"/>
      <point x="173" y="672" type="line" smooth="yes"/>
      <point x="173" y="443"/>
      <point x="389" y="127"/>
      <point x="587" y="127" type="qcurve" smooth="yes"/>
      <point x="753" y="127"/>
      <point x="904" y="200"/>
      <point x="946" y="239" type="qcurve"/>
      <point x="946" y="569" type="line"/>
      <point x="637" y="569" type="line"/>
      <point x="637" y="725" type="line"/>
      <point x="995" y="725" type="line"/>
      <point x="995" y="151" type="line"/>
      <point x="959" y="101"/>
      <point x="723" y="-30"/>
      <point x="586" y="-30" type="qcurve" smooth="yes"/>
      <point x="400" y="-30"/>
      <point x="115" y="327"/>
    </contour>
  </outline>
</glyph>
<glyph name="I" format="1">
  <advance width="405"/>
  <unicode hex="0049"/>
  <outline>
    <contour>
      <point x="175" y="0" type="line"/>
      <point x="175" y="1456" type="line"/>
      <point x="230" y="1456" type="line"/>
      <point x="230" y="0" type="line"/>
    </contour>
    <contour>
      <point x="204" y="1432" type="move" name="top"/>
    </contour>
  </outline>
</glyph>
<glyph name="J" format="1">
  <advance width="852"/>
  <unicode hex="004A"/>
  <outline>
    <contour>
      <point x="24" y="390" type="qcurve" smooth="yes"/>
      <point x="24" y="403" type="line"/>
      <point x="79" y="403" type="line"/>
      <point x="79" y="390" type="line" smooth="yes"/>
      <point x="79" y="276"/>
      <point x="226" y="127"/>
      <point x="360" y="127" type="qcurve" smooth="yes"/>
      <point x="495" y="127"/>
      <point x="642" y="303"/>
      <point x="642" y="425" type="qcurve" smooth="yes"/>
      <point x="642" y="1456" type="line"/>
      <point x="696" y="1456" type="line"/>
      <point x="696" y="425" type="line" smooth="yes"/>
      <point x="696" y="192"/>
      <point x="491" y="-30"/>
      <point x="360" y="-30" type="qcurve" smooth="yes"/>
      <point x="231" y="-30"/>
      <point x="24" y="167"/>
    </contour>
  </outline>
</glyph>
<glyph name="K" format="1">
  <advance width="1004"/>
  <unicode hex="004B"/>
  <outline>
    <contour>
      <point x="905" y="0" type="line"/>
      <point x="435" y="737" type="line"/>
      <point x="501" y="812" type="line"/>
      <point x="1024" y="0" type="line"/>
    </contour>
    <contour>
      <point x="170" y="0" type="line"/>
      <point x="170" y="1456" type="line"/>
      <point x="225" y="1456" type="line"/>
      <point x="225" y="599" type="line"/>
      <point x="373" y="804" type="line"/>
      <point x="869" y="1456" type="line"/>
      <point x="988" y="1456" type="line"/>
      <point x="225" y="485" type="line"/>
      <point x="225" y="0" type="line"/>
    </contour>
  </outline>
</glyph>
<glyph name="M" format="1">
  <advance width="1463"/>
  <unicode hex="004D"/>
  <outline>
    <contour>
      <point x="170" y="0" type="line"/>
      <point x="170" y="1456" type="line"/>
      <point x="282" y="1456" type="line"/>
      <point x="651" y="353" type="line" smooth="yes"/>
      <point x="657" y="335"/>
      <point x="672" y="284"/>
      <point x="674" y="239" type="qcurve"/>
      <point x="787" y="239" type="line"/>
      <point x="791" y="282"/>
      <point x="807" y="335"/>
      <point x="812" y="353" type="qcurve" smooth="yes"/>
      <point x="1181" y="1456" type="line"/>
      <point x="1293" y="1456" type="line"/>
      <point x="1293" y="0" type="line"/>
      <point x="1244" y="0" type="line"/>
      <point x="1244" y="919" type="line" smooth="yes"/>
      <point x="1244" y="1007"/>
      <point x="1249" y="1191"/>
      <point x="1248" y="1185" type="qcurve"/>
      <point x="1142" y="1185" type="line"/>
      <point x="1133" y="1130"/>
      <point x="1112" y="1050"/>
      <point x="1104" y="1026" type="qcurve" smooth="yes"/>
      <point x="757" y="0" type="line"/>
      <point x="705" y="0" type="line"/>
      <point x="355" y="1026" type="line" smooth="yes"/>
      <point x="347" y="1049"/>
      <point x="329" y="1129"/>
      <point x="320" y="1185" type="qcurve"/>
      <point x="212" y="1185" type="line"/>
      <point x="211" y="1192"/>
      <point x="216" y="1007"/>
      <point x="216" y="919" type="qcurve" smooth="yes"/>
      <point x="216" y="0" type="line"/>
    </contour>
  </outline>
</glyph>
<glyph name="N" format="1">
  <advance width="1183"/>
  <unicode hex="004E"/>
  <outline>
    <contour>
      <point x="170" y="0" type="line"/>
      <point x="170" y="1456" type="line"/>
      <point x="238" y="1456" type="line"/>
      <point x="803" y="440" type="line" smooth="yes"/>
      <point x="810" y="427"/>
      <point x="843" y="362"/>
      <point x="856" y="326" type="qcurve"/>
      <point x="966" y="326" type="line"/>
      <point x="966" y="308"/>
      <point x="964" y="380"/>
      <point x="964" y="441" type="qcurve" smooth="yes"/>
      <point x="964" y="1456" type="line"/>
      <point x="1013" y="1456" type="line"/>
      <point x="1013" y="0" type="line"/>
      <point x="944" y="0" type="line"/>
      <point x="382" y="1013" type="line" smooth="yes"/>
      <point x="374" y="1027"/>
      <point x="336" y="1093"/>
      <point x="322" y="1127" type="qcurve"/>
      <point x="223" y="1127" type="line"/>
      <point x="224" y="1106"/>
      <point x="219" y="994"/>
      <point x="219" y="1012" type="qcurve" smooth="yes"/>
      <point x="219" y="0" type="line"/>
    </contour>
    <contour>
      <point x="612" y="1432" type="move" name="top"/>
    </contour>
  </outline>
</glyph>
<glyph name="O" format="1">
  <advance width="1168"/>
  <unicode hex="004F"/>
  <outline>
    <contour>
      <point x="115" y="682" type="qcurve" smooth="yes"/>
      <point x="115" y="774" type="line" smooth="yes"/>
      <point x="115" y="1119"/>
      <point x="397" y="1486"/>
      <point x="584" y="1486" type="qcurve" smooth="yes"/>
      <point x="777" y="1486"/>
      <point x="1053" y="1122"/>
      <point x="1053" y="774" type="qcurve" smooth="yes"/>
      <point x="1053" y="682" type="line" smooth="yes"/>
      <point x="1053" y="336"/>
      <point x="777" y="-30"/>
      <point x="585" y="-30" type="qcurve" smooth="yes"/>
      <point x="396" y="-30"/>
      <point x="115" y="332"/>
    </contour>
    <contour>
      <point x="173" y="682" type="line" smooth="yes"/>
      <point x="173" y="445"/>
      <point x="389" y="133"/>
      <point x="585" y="133" type="qcurve" smooth="yes"/>
      <point x="791" y="133"/>
      <point x="995" y="444"/>
      <point x="995" y="682" type="qcurve" smooth="yes"/>
      <point x="995" y="776" type="line" smooth="yes"/>
      <point x="995" y="1010"/>
      <point x="788" y="1322"/>
      <point x="584" y="1322" type="qcurve" smooth="yes"/>
      <point x="386" y="1322"/>
      <point x="173" y="1013"/>
      <point x="173" y="776" type="qcurve" smooth="yes"/>
    </contour>
    <contour>
      <point x="584" y="1432" type="move" name="top"/>
    </contour>
  </outline>
</glyph>
<glyph name="Q" format="1">
  <advance width="1168"/>
  <unicode hex="0051"/>
  <outline>
    <contour>
      <point x="972" y="-208" type="line"/>
      <point x="704" y="42" type="line"/>
      <point x="776" y="127" type="line"/>
      <point x="1048" y="-126" type="line"/>
    </contour>
    <contour>
      <point x="115" y="682" type="qcurve" smooth="yes"/>
      <point x="115" y="774" type="line" smooth="yes"/>
      <point x="115" y="1127"/>
      <point x="404" y="1486"/>
      <point x="584" y="1486" type="qcurve" smooth="yes"/>
      <point x="771" y="1486"/>
      <point x="1053" y="1129"/>
      <point x="1053" y="774" type="qcurve" smooth="yes"/>
      <point x="1053" y="682" type="line" smooth="yes"/>
      <point x="1053" y="336"/>
      <point x="771" y="-25"/>
      <point x="585" y="-25" type="qcurve" smooth="yes"/>
      <point x="403" y="-25"/>
      <point x="115" y="334"/>
    </contour>
    <contour>
      <point x="173" y="682" type="line" smooth="yes"/>
      <point x="173" y="440"/>
      <point x="392" y="138"/>
      <point x="585" y="138" type="qcurve" smooth="yes"/>
      <point x="784" y="138"/>
      <point x="995" y="443"/>
      <point x="995" y="682" type="qcurve" smooth="yes"/>
      <point x="995" y="776" type="line" smooth="yes"/>
      <point x="995" y="1023"/>
      <point x="784" y="1322"/>
      <point x="584" y="1322" type="qcurve" smooth="yes"/>
      <point x="393" y="1322"/>
      <point x="173" y="1021"/>
      <point x="173" y="776" type="qcurve" smooth="yes"/>
    </contour>
  </outline>
</glyph>
<glyph name="S" format="1">
  <advance width="949"/>
  <unicode hex="0053"/>
  <outline>
    <contour>
      <point x="88" y="393" type="qcurve" smooth="yes"/>
      <point x="88" y="405" type="line"/>
      <point x="142" y="405" type="line"/>
      <point x="142" y="398" type="line" smooth="yes"/>
      <point x="142" y="281"/>
      <point x="314" y="130"/>
      <point x="481" y="130" type="qcurve" smooth="yes"/>
      <point x="655" y="130"/>
      <point x="819" y="278"/>
      <point x="819" y="368" type="qcurve" smooth="yes"/>
      <point x="819" y="461"/>
      <point x="670" y="597"/>
      <point x="458" y="666" type="qcurve" smooth="yes"/>
      <point x="291" y="720"/>
      <point x="115" y="898"/>
      <point x="115" y="1080" type="qcurve" smooth="yes"/>
      <point x="115" y="1266"/>
      <point x="328" y="1486"/>
      <point x="480" y="1486" type="qcurve" smooth="yes"/>
      <point x="652" y="1486"/>
      <point x="850" y="1255"/>
      <point x="850" y="1071" type="qcurve" smooth="yes"/>
      <point x="850" y="1056" type="line"/>
      <point x="796" y="1056" type="line"/>
      <point x="796" y="1070" type="line" smooth="yes"/>
      <point x="796" y="1169"/>
      <point x="644" y="1321"/>
      <point x="472" y="1321" type="qcurve" smooth="yes"/>
      <point x="303" y="1321"/>
      <point x="170" y="1175"/>
      <point x="170" y="1092" type="qcurve" smooth="yes"/>
      <point x="170" y="1016"/>
      <point x="324" y="885"/>
      <point x="508" y="828" type="qcurve" smooth="yes"/>
      <point x="684" y="773"/>
      <point x="874" y="582"/>
      <point x="874" y="380" type="qcurve" smooth="yes"/>
      <point x="874" y="177"/>
      <point x="652" y="-30"/>
      <point x="491" y="-30" type="qcurve" smooth="yes"/>
      <point x="323" y="-30"/>
      <point x="88" y="168"/>
    </contour>
  </outline>
</glyph>
<glyph name="U" format="1">
  <advance width="1051"/>
  <unicode hex="0055"/>
  <outline>
    <contour>
      <point x="132" y="471" type="qcurve" smooth="yes"/>
      <point x="132" y="1456" type="line"/>
      <point x="186" y="1456" type="line"/>
      <point x="186" y="471" type="line" smooth="yes"/>
      <point x="186" y="318"/>
      <point x="360" y="137"/>
      <point x="524" y="137" type="qcurve" smooth="yes"/>
      <point x="691" y="137"/>
      <point x="865" y="318"/>
      <point x="865" y="471" type="qcurve" smooth="yes"/>
      <point x="865" y="1456" type="line"/>
      <point x="919" y="1456" type="line"/>
      <point x="919" y="471" type="line" smooth="yes"/>
      <point x="919" y="210"/>
      <point x="665" y="-30"/>
      <point x="524" y="-30" type="qcurve" smooth="yes"/>
      <point x="373" y="-30"/>
      <point x="132" y="209"/>
    </contour>
    <contour>
      <point x="525" y="1432" type="move" name="top"/>
    </contour>
  </outline>
</glyph>
<glyph name="V" format="1">
  <advance width="1026"/>
  <unicode hex="0056"/>
  <outline>
    <contour>
      <point x="28" y="1456" type="line"/>
      <point x="105" y="1456" type="line"/>
      <point x="437" y="361" type="line" smooth="yes"/>
      <point x="433" y="374"/>
      <point x="450" y="293"/>
      <point x="458" y="244" type="qcurve"/>
      <point x="564" y="244" type="line"/>
      <point x="575" y="293"/>
      <point x="590" y="375"/>
      <point x="597" y="400" type="qcurve" smooth="yes"/>
      <point x="923" y="1456" type="line"/>
      <point x="998" y="1456" type="line"/>
      <point x="540" y="-10" type="line"/>
      <point x="485" y="-10" type="line"/>
    </contour>
  </outline>
</glyph>
<glyph name="W" format="1">
  <advance width="1465"/>
  <unicode hex="0057"/>
  <outline>
    <contour>
      <point x="53" y="1456" type="line"/>
      <point x="117" y="1456" type="line"/>
      <point x="326" y="385" type="line" smooth="yes"/>
      <point x="331" y="362"/>
      <point x="334" y="301"/>
      <point x="339" y="244" type="qcurve"/>
      <point x="446" y="244" type="line"/>
      <point x="452" y="300"/>
      <point x="456" y="362"/>
      <point x="461" y="384" type="qcurve" smooth="yes"/>
      <point x="698" y="1456" type="line"/>
      <point x="775" y="1456" type="line"/>
      <point x="1007" y="384" type="line" smooth="yes"/>
      <point x="1012" y="360"/>
      <point x="1020" y="298"/>
      <point x="1027" y="244" type="qcurve"/>
      <point x="1134" y="244" type="line"/>
      <point x="1138" y="299"/>
      <point x="1145" y="360"/>
      <point x="1150" y="386" type="qcurve" smooth="yes"/>
      <point x="1350" y="1456" type="line"/>
      <point x="1412" y="1456" type="line"/>
      <point x="1117" y="-10" type="line"/>
      <point x="1047" y="-10" type="line"/>
      <point x="808" y="1055" type="line" smooth="yes"/>
      <point x="802" y="1082"/>
      <point x="792" y="1140"/>
      <point x="792" y="1195" type="qcurve"/>
      <point x="681" y="1195" type="line"/>
      <point x="675" y="1142"/>
      <point x="665" y="1078"/>
      <point x="662" y="1052" type="qcurve"/>
      <point x="420" y="-10" type="line"/>
      <point x="349" y="-10" type="line"/>
    </contour>
  </outline>
</glyph>
<glyph name="X" format="1">
  <advance width="962"/>
  <unicode hex="0058"/>
  <outline>
    <contour>
      <point x="34" y="1456" type="line"/>
      <point x="134" y="1456" type="line"/>
      <point x="476" y="813" type="line"/>
      <point x="487" y="813" type="line"/>
      <point x="938" y="0" type="line"/>
      <point x="836" y="0" type="line"/>
      <point x="488" y="644" type="line"/>
      <point x="479" y="644" type="line"/>
    </contour>
    <contour>
      <point x="24" y="0" type="line"/>
      <point x="466" y="803" type="line"/>
      <point x="478" y="803" type="line"/>
      <point x="820" y="1456" type="line"/>
      <point x="920" y="1456" type="line"/>
      <point x="474" y="644" type="line"/>
      <point x="466" y="644" type="line"/>
      <point x="124" y="0" type="line"/>
    </contour>
  </outline>
</glyph>
<glyph name="Y" format="1">
  <advance width="966"/>
  <unicode hex="0059"/>
  <outline>
    <contour>
      <point x="16" y="1456" type="line"/>
      <point x="114" y="1456" type="line"/>
      <point x="392" y="861" type="line" smooth="yes"/>
      <point x="400" y="843"/>
      <point x="429" y="774"/>
      <point x="441" y="736" type="qcurve"/>
      <point x="533" y="736" type="line"/>
      <point x="545" y="773"/>
      <point x="569" y="829"/>
      <point x="584" y="862" type="qcurve" smooth="yes"/>
      <point x="854" y="1456" type="line"/>
      <point x="950" y="1456" type="line"/>
      <point x="510" y="518" type="line"/>
      <point x="510" y="0" type="line"/>
      <point x="456" y="0" type="line"/>
      <point x="456" y="518" type="line"/>
    </contour>
    <contour>
      <point x="483" y="1432" type="move" name="top"/>
    </contour>
  </outline>
</glyph>
<glyph name="Z" format="1">
  <advance width="863"/>
  <unicode hex="005A"/>
  <outline>
    <contour>
      <point x="36" y="0" type="line"/>
      <point x="36" y="167" type="line"/>
      <point x="701" y="1298" type="line"/>
      <point x="47" y="1298" type="line"/>
      <point x="47" y="1456" type="line"/>
      <point x="800" y="1456" type="line"/>
      <point x="800" y="1293" type="line"/>
      <point x="134" y="157" type="line"/>
      <point x="827" y="157" type="line"/>
      <point x="827" y="0" type="line"/>
    </contour>
  </outline>
</glyph>
<glyph name="bracketleft" format="1">
  <advance width="470"/>
  <unicode hex="005B"/>
  <outline>
    <contour>
      <point x="147" y="-312" type="line"/>
      <point x="147" y="1456" type="line"/>
      <point x="442" y="1456" type="line"/>
      <point x="442" y="1296" type="line"/>
      <point x="195" y="1296" type="line"/>
      <point x="195" y="-152" type="line"/>
      <point x="442" y="-152" type="line"/>
      <point x="442" y="-312" type="line"/>
    </contour>
  </outline>
</glyph>
<glyph name="backslash" format="1">
  <advance width="373"/>
  <unicode hex="005C"/>
  <outline>
    <contour>
      <point x="475" y="-125" type="line"/>
      <point x="414" y="-125" type="line"/>
      <point x="-102" y="1456" type="line"/>
      <point x="-42" y="1456" type="line"/>
    </contour>
  </outline>
</glyph>
<glyph name="bracketright" format="1">
  <advance width="471"/>
  <unicode hex="005D"/>
  <outline>
    <contour>
      <point x="324" y="-312" type="line"/>
      <point x="28" y="-312" type="line"/>
      <point x="28" y="-152" type="line"/>
      <point x="276" y="-152" type="line"/>
      <point x="276" y="1296" type="line"/>
      <point x="28" y="1296" type="line"/>
      <point x="28" y="1456" type="line"/>
      <point x="324" y="1456" type="line"/>
    </contour>
  </outline>
</glyph>
<glyph name="underscore" format="1">
  <advance width="645"/>
  <unicode hex="005F"/>
  <outline>
    <contour>
      <point x="0" y="-266" type="line"/>
      <point x="0" y="-100" type="line"/>
      <point x="152" y="-100" type="line"/>
      <point x="152" y="-266" type="line"/>
    </contour>
    <contour>
      <point x="247" y="-266" type="line"/>
      <point x="247" y="-100" type="line"/>
      <point x="398" y="-100" type="line"/>
      <point x="398" y="-266" type="line"/>
    </contour>
    <contour>
      <point x="493" y="-266" type="line"/>
      <point x="493" y="-100" type="line"/>
      <point x="645" y="-100" type="line"/>
      <point x="645" y="-266" type="line"/>
    </contour>
  </outline>
</glyph>
<glyph name="b" format="1">
  <advance width="886"/>
  <unicode hex="0062"/>
  <outline>
    <contour>
      <point x="148" y="0" type="line"/>
      <point x="148" y="1536" type="line"/>
      <point x="202" y="1536" type="line"/>
      <point x="202" y="793" type="line"/>
      <point x="330" y="1009"/>
      <point x="453" y="1082"/>
      <point x="510" y="1082" type="qcurve" smooth="yes"/>
      <point x="637" y="1082"/>
      <point x="801" y="810"/>
      <point x="801" y="550" type="qcurve" smooth="yes"/>
      <point x="801" y="529" type="line" smooth="yes"/>
      <point x="801" y="274"/>
      <point x="636" y="-15"/>
      <point x="512" y="-15" type="qcurve" smooth="yes"/>
      <point x="453" y="-15"/>
      <point x="326" y="67"/>
      <point x="208" y="283" type="qcurve"/>
      <point x="191" y="0" type="line"/>
    </contour>
    <contour>
      <point x="202" y="376" type="line"/>
      <point x="233" y="274"/>
      <point x="351" y="142"/>
      <point x="475" y="142" type="qcurve" smooth="yes"/>
      <point x="630" y="142"/>
      <point x="747" y="395"/>
      <point x="747" y="529" type="qcurve" smooth="yes"/>
      <point x="747" y="550" type="line" smooth="yes"/>
      <point x="747" y="679"/>
      <point x="635" y="926"/>
      <point x="473" y="926" type="qcurve" smooth="yes"/>
      <point x="348" y="926"/>
      <point x="230" y="801"/>
      <point x="202" y="705" type="qcurve"/>
    </contour>
  </outline>
</glyph>
<glyph name="c" format="1">
  <advance width="756"/>
  <unicode hex="0063"/>
  <outline>
    <contour>
      <point x="85" y="511" type="qcurve" smooth="yes"/>
      <point x="85" y="553" type="line" smooth="yes"/>
      <point x="85" y="797"/>
      <point x="277" y="1082"/>
      <point x="423" y="1082" type="qcurve" smooth="yes"/>
      <point x="575" y="1082"/>
      <point x="720" y="856"/>
      <point x="720" y="693" type="qcurve" smooth="yes"/>
      <point x="720" y="690" type="line"/>
      <point x="674" y="690" type="line"/>
      <point x="674" y="693" type="line" smooth="yes"/>
      <point x="674" y="746"/>
      <point x="575" y="930"/>
      <point x="423" y="930" type="qcurve" smooth="yes"/>
      <point x="271" y="930"/>
      <point x="141" y="699"/>
      <point x="141" y="553" type="qcurve" smooth="yes"/>
      <point x="141" y="511" type="line" smooth="yes"/>
      <point x="141" y="367"/>
      <point x="268" y="122"/>
      <point x="423" y="122" type="qcurve" smooth="yes"/>
      <point x="576" y="122"/>
      <point x="674" y="271"/>
      <point x="674" y="327" type="qcurve" smooth="yes"/>
      <point x="674" y="332" type="line"/>
      <point x="720" y="332" type="line"/>
      <point x="720" y="327" type="line" smooth="yes"/>
      <point x="720" y="187"/>
      <point x="581" y="-30"/>
      <point x="423" y="-30" type="qcurve" smooth="yes"/>
      <point x="265" y="-30"/>
      <point x="85" y="274"/>
    </contour>
    <contour>
      <point x="433" y="0" type="move" name="bottom"/>
    </contour>
  </outline>
</glyph>
<glyph name="d" format="1">
  <advance width="887"/>
  <unicode hex="0064"/>
  <outline>
    <contour>
      <point x="85" y="518" type="qcurve" smooth="yes"/>
      <point x="85" y="538" type="line" smooth="yes"/>
      <point x="85" y="800"/>
      <point x="256" y="1077"/>
      <point x="380" y="1077" type="qcurve" smooth="yes"/>
      <point x="477" y="1077"/>
      <point x="588" y="966"/>
      <point x="685" y="810" type="qcurve"/>
      <point x="685" y="1536" type="line"/>
      <point x="739" y="1536" type="line"/>
      <point x="739" y="0" type="line"/>
      <point x="695" y="0" type="line"/>
      <point x="678" y="266" type="line"/>
      <point x="560" y="59"/>
      <point x="436" y="-20"/>
      <point x="379" y="-20" type="qcurve" smooth="yes"/>
      <point x="262" y="-20"/>
      <point x="85" y="267"/>
    </contour>
    <contour>
      <point x="143" y="521" type="line" smooth="yes"/>
      <point x="143" y="387"/>
      <point x="260" y="137"/>
      <point x="416" y="137" type="qcurve" smooth="yes"/>
      <point x="538" y="137"/>
      <point x="652" y="261"/>
      <point x="685" y="362" type="qcurve"/>
      <point x="685" y="722" type="line"/>
      <point x="656" y="809"/>
      <point x="538" y="925"/>
      <point x="417" y="925" type="qcurve" smooth="yes"/>
      <point x="267" y="925"/>
      <point x="143" y="690"/>
      <point x="143" y="542" type="qcurve" smooth="yes"/>
    </contour>
  </outline>
</glyph>
<glyph name="e" format="1">
  <advance width="789"/>
  <unicode hex="0065"/>
  <outline>
    <contour>
      <point x="85" y="503" type="qcurve" smooth="yes"/>
      <point x="85" y="545" type="line" smooth="yes"/>
      <point x="85" y="801"/>
      <point x="279" y="1082"/>
      <point x="425" y="1082" type="qcurve" smooth="yes"/>
      <point x="568" y="1082"/>
      <point x="725" y="804"/>
      <point x="725" y="572" type="qcurve" smooth="yes"/>
      <point x="725" y="489" type="line"/>
      <point x="173" y="489" type="line"/>
      <point x="173" y="635" type="line"/>
      <point x="672" y="635" type="line"/>
      <point x="672" y="654" type="line" smooth="yes"/>
      <point x="672" y="725"/>
      <point x="565" y="930"/>
      <point x="416" y="930" type="qcurve" smooth="yes"/>
      <point x="281" y="930"/>
      <point x="136" y="704"/>
      <point x="136" y="545" type="qcurve" smooth="yes"/>
      <point x="136" y="503" type="line" smooth="yes"/>
      <point x="136" y="347"/>
      <point x="291" y="130"/>
      <point x="444" y="130" type="qcurve" smooth="yes"/>
      <point x="532" y="130"/>
      <point x="640" y="185"/>
      <point x="672" y="225" type="qcurve" smooth="yes"/>
      <point x="680" y="235" type="line"/>
      <point x="733" y="179" type="line"/>
      <point x="729" y="171" type="line" smooth="yes"/>
      <point x="692" y="96"/>
      <point x="543" y="-30"/>
      <point x="436" y="-30" type="qcurve" smooth="yes"/>
      <point x="271" y="-30"/>
      <point x="85" y="255"/>
    </contour>
    <contour>
      <point x="422.0" y="1053.0" type="move" name="top"/>
    </contour>
  </outline>
</glyph>
<glyph name="g" format="1">
  <advance width="877"/>
  <unicode hex="0067"/>
  <outline>
    <contour>
      <point x="103" y="-284" type="qcurve"/>
      <point x="165" y="-193" type="line"/>
      <point x="163" y="-191"/>
      <point x="298" y="-275"/>
      <point x="407" y="-275" type="qcurve" smooth="yes"/>
      <point x="545" y="-275"/>
      <point x="687" y="-111"/>
      <point x="687" y="14" type="qcurve" smooth="yes"/>
      <point x="687" y="360" type="line"/>
      <point x="560" y="83"/>
      <point x="430" y="-10"/>
      <point x="368" y="-10" type="qcurve" smooth="yes"/>
      <point x="252" y="-10"/>
      <point x="85" y="273"/>
      <point x="85" y="516" type="qcurve" smooth="yes"/>
      <point x="85" y="537" type="line" smooth="yes"/>
      <point x="85" y="798"/>
      <point x="251" y="1077"/>
      <point x="369" y="1077" type="qcurve" smooth="yes"/>
      <point x="432" y="1077"/>
      <point x="559" y="982"/>
      <point x="673" y="721" type="qcurve"/>
      <point x="695" y="1052" type="line"/>
      <point x="737" y="1052" type="line"/>
      <point x="737" y="23" type="line" smooth="yes"/>
      <point x="737" y="-208"/>
      <point x="545" y="-437"/>
      <point x="418" y="-437" type="qcurve" smooth="yes"/>
      <point x="350" y="-437"/>
      <point x="151" y="-352"/>
    </contour>
    <contour>
      <point x="143" y="519" type="line" smooth="yes"/>
      <point x="143" y="361"/>
      <point x="271" y="147"/>
      <point x="408" y="147" type="qcurve" smooth="yes"/>
      <point x="541" y="147"/>
      <point x="655" y="302"/>
      <point x="684" y="416" type="qcurve"/>
      <point x="684" y="657" type="line"/>
      <point x="658" y="769"/>
      <point x="541" y="926"/>
      <point x="410" y="926" type="qcurve" smooth="yes"/>
      <point x="271" y="926"/>
      <point x="143" y="701"/>
      <point x="143" y="540" type="qcurve" smooth="yes"/>
    </contour>
  </outline>
</glyph>
<glyph name="h" format="1">
  <advance width="863"/>
  <unicode hex="0068"/>
  <outline>
    <contour>
      <point x="148" y="0" type="line"/>
      <point x="148" y="1536" type="line"/>
      <point x="201" y="1536" type="line"/>
      <point x="201" y="799" type="line"/>
      <point x="331" y="995"/>
      <point x="456" y="1072"/>
      <point x="504" y="1072" type="qcurve" smooth="yes"/>
      <point x="597" y="1072"/>
      <point x="734" y="908"/>
      <point x="734" y="679" type="qcurve" smooth="yes"/>
      <point x="734" y="0" type="line"/>
      <point x="680" y="0" type="line"/>
      <point x="680" y="681" type="line" smooth="yes"/>
      <point x="680" y="790"/>
      <point x="576" y="916"/>
      <point x="460" y="916" type="qcurve" smooth="yes"/>
      <point x="356" y="916"/>
      <point x="239" y="812"/>
      <point x="201" y="718" type="qcurve"/>
      <point x="201" y="0" type="line"/>
    </contour>
  </outline>
</glyph>
<glyph name="i" format="1">
  <advance width="361"/>
  <unicode hex="0069"/>
  <outline>
    <contour>
      <point x="154" y="0" type="line"/>
      <point x="154" y="1052" type="line"/>
      <point x="207" y="1052" type="line"/>
      <point x="207" y="0" type="line"/>
    </contour>
    <contour>
      <point x="140" y="1369" type="qcurve" smooth="yes"/>
      <point x="140" y="1433"/>
      <point x="171" y="1476"/>
      <point x="180" y="1476" type="qcurve" smooth="yes"/>
      <point x="189" y="1476"/>
      <point x="221" y="1432"/>
      <point x="221" y="1369" type="qcurve" smooth="yes"/>
      <point x="221" y="1308"/>
      <point x="189" y="1265"/>
      <point x="180" y="1265" type="qcurve" smooth="yes"/>
      <point x="171" y="1265"/>
      <point x="140" y="1307"/>
    </contour>
  </outline>
</glyph>
<glyph name="j" format="1">
  <advance width="346"/>
  <unicode hex="006A"/>
  <outline>
    <contour>
      <point x="-64" y="-417" type="qcurve"/>
      <point x="-64" y="-291" type="line"/>
      <point x="-127" y="-266"/>
      <point x="-61" y="-280"/>
      <point x="-11" y="-280" type="qcurve" smooth="yes"/>
      <point x="71" y="-280"/>
      <point x="137" y="-193"/>
      <point x="137" y="-129" type="qcurve" smooth="yes"/>
      <point x="137" y="1052" type="line"/>
      <point x="191" y="1052" type="line"/>
      <point x="191" y="-76" type="line" smooth="yes"/>
      <point x="191" y="-284"/>
      <point x="93" y="-437"/>
      <point x="21" y="-437" type="qcurve" smooth="yes"/>
      <point x="19" y="-437"/>
      <point x="-60" y="-418"/>
    </contour>
    <contour>
      <point x="122" y="1369" type="qcurve" smooth="yes"/>
      <point x="122" y="1433"/>
      <point x="153" y="1476"/>
      <point x="162" y="1476" type="qcurve" smooth="yes"/>
      <point x="171" y="1476"/>
      <point x="202" y="1433"/>
      <point x="202" y="1369" type="qcurve" smooth="yes"/>
      <point x="202" y="1308"/>
      <point x="171" y="1265"/>
      <point x="162" y="1265" type="qcurve" smooth="yes"/>
      <point x="153" y="1265"/>
      <point x="122" y="1308"/>
    </contour>
  </outline>
</glyph>
<glyph name="k" format="1">
  <advance width="765"/>
  <unicode hex="006B"/>
  <outline>
    <contour>
      <point x="670" y="0" type="line"/>
      <point x="340" y="546" type="line"/>
      <point x="401" y="627" type="line"/>
      <point x="781" y="0" type="line"/>
    </contour>
    <contour>
      <point x="146" y="0" type="line"/>
      <point x="146" y="1536" type="line"/>
      <point x="200" y="1536" type="line"/>
      <point x="200" y="411" type="line"/>
      <point x="296" y="603"/>
      <point x="327" y="646"/>
      <point x="337" y="658" type="qcurve" smooth="yes"/>
      <point x="633" y="1052" type="line"/>
      <point x="743" y="1052" type="line"/>
      <point x="200" y="333" type="line"/>
      <point x="200" y="0" type="line"/>
    </contour>
  </outline>
</glyph>
<glyph name="m" format="1">
  <advance width="1373"/>
  <unicode hex="006D"/>
  <outline>
    <contour>
      <point x="148" y="0" type="line"/>
      <point x="148" y="1052" type="line"/>
      <point x="189" y="1052" type="line"/>
      <point x="196" y="917" type="line"/>
      <point x="280" y="917" type="line"/>
      <point x="326" y="986"/>
      <point x="442" y="1071"/>
      <point x="493" y="1072" type="qcurve" smooth="yes"/>
      <point x="545" y="1072"/>
      <point x="659" y="996"/>
      <point x="725" y="821" type="qcurve"/>
      <point x="814" y="981"/>
      <point x="939" y="1072"/>
      <point x="1000" y="1072" type="qcurve" smooth="yes"/>
      <point x="1105" y="1072"/>
      <point x="1235" y="895"/>
      <point x="1235" y="681" type="qcurve" smooth="yes"/>
      <point x="1235" y="0" type="line"/>
      <point x="1181" y="0" type="line"/>
      <point x="1181" y="683" type="line" smooth="yes"/>
      <point x="1181" y="795"/>
      <point x="1074" y="916"/>
      <point x="957" y="916" type="qcurve" smooth="yes"/>
      <point x="837" y="916"/>
      <point x="737" y="793"/>
      <point x="719" y="737" type="qcurve"/>
      <point x="719" y="0" type="line"/>
      <point x="665" y="0" type="line"/>
      <point x="665" y="682" type="line" smooth="yes"/>
      <point x="665" y="792"/>
      <point x="557" y="916"/>
      <point x="440" y="916" type="qcurve" smooth="yes"/>
      <point x="335" y="916"/>
      <point x="233" y="823"/>
      <point x="202" y="737" type="qcurve"/>
      <point x="202" y="0" type="line"/>
    </contour>
  </outline>
</glyph>
<glyph name="n" format="1">
  <advance width="872"/>
  <unicode hex="006E"/>
  <outline>
    <contour>
      <point x="148" y="0" type="line"/>
      <point x="148" y="1052" type="line"/>
      <point x="189" y="1052" type="line"/>
      <point x="196" y="917" type="line"/>
      <point x="281" y="917" type="line"/>
      <point x="329" y="993"/>
      <point x="455" y="1072"/>
      <point x="504" y="1072" type="qcurve" smooth="yes"/>
      <point x="597" y="1072"/>
      <point x="734" y="908"/>
      <point x="734" y="679" type="qcurve" smooth="yes"/>
      <point x="734" y="0" type="line"/>
      <point x="680" y="0" type="line"/>
      <point x="680" y="681" type="line" smooth="yes"/>
      <point x="680" y="790"/>
      <point x="576" y="916"/>
      <point x="460" y="916" type="qcurve" smooth="yes"/>
      <point x="356" y="916"/>
      <point x="239" y="812"/>
      <point x="202" y="718" type="qcurve"/>
      <point x="202" y="0" type="line"/>
    </contour>
    <contour>
      <point x="466" y="1052" type="move" name="top"/>
    </contour>
  </outline>
</glyph>
<glyph name="o" format="1">
  <advance width="869"/>
  <unicode hex="006F"/>
  <outline>
    <contour>
      <point x="85" y="509" type="qcurve" smooth="yes"/>
      <point x="85" y="542" type="line" smooth="yes"/>
      <point x="85" y="798"/>
      <point x="279" y="1082"/>
      <point x="445" y="1082" type="qcurve" smooth="yes"/>
      <point x="611" y="1082"/>
      <point x="807" y="805"/>
      <point x="807" y="542" type="qcurve" smooth="yes"/>
      <point x="807" y="509" type="line" smooth="yes"/>
      <point x="807" y="253"/>
      <point x="609" y="-30"/>
      <point x="447" y="-30" type="qcurve" smooth="yes"/>
      <point x="285" y="-30"/>
      <point x="85" y="253"/>
    </contour>
    <contour>
      <point x="140" y="542" type="qcurve" smooth="yes"/>
      <point x="140" y="509" type="line" smooth="yes"/>
      <point x="140" y="345"/>
      <point x="293" y="122"/>
      <point x="447" y="122" type="qcurve" smooth="yes"/>
      <point x="598" y="122"/>
      <point x="752" y="345"/>
      <point x="752" y="509" type="qcurve" smooth="yes"/>
      <point x="752" y="542" type="line" smooth="yes"/>
      <point x="752" y="704"/>
      <point x="598" y="930"/>
      <point x="445" y="930" type="qcurve" smooth="yes"/>
      <point x="293" y="930"/>
      <point x="140" y="704"/>
    </contour>
    <contour>
      <point x="446" y="1052" type="move" name="top"/>
    </contour>
  </outline>
</glyph>
<glyph name="p" format="1">
  <advance width="888"/>
  <unicode hex="0070"/>
  <outline>
    <contour>
      <point x="148" y="-416" type="line"/>
      <point x="148" y="1052" type="line"/>
      <point x="191" y="1052" type="line"/>
      <point x="209" y="804" type="line"/>
      <point x="326" y="1005"/>
      <point x="453" y="1082"/>
      <point x="510" y="1082" type="qcurve" smooth="yes"/>
      <point x="630" y="1082"/>
      <point x="803" y="809"/>
      <point x="803" y="550" type="qcurve" smooth="yes"/>
      <point x="803" y="529" type="line" smooth="yes"/>
      <point x="803" y="273"/>
      <point x="622" y="-15"/>
      <point x="496" y="-15" type="qcurve" smooth="yes"/>
      <point x="447" y="-15"/>
      <point x="330" y="54"/>
      <point x="202" y="264" type="qcurve"/>
      <point x="202" y="-416" type="line"/>
    </contour>
    <contour>
      <point x="202" y="348" type="line"/>
      <point x="229" y="262"/>
      <point x="348" y="137"/>
      <point x="468" y="137" type="qcurve" smooth="yes"/>
      <point x="624" y="137"/>
      <point x="745" y="383"/>
      <point x="745" y="529" type="qcurve" smooth="yes"/>
      <point x="745" y="550" type="line" smooth="yes"/>
      <point x="745" y="680"/>
      <point x="624" y="926"/>
      <point x="467" y="926" type="qcurve" smooth="yes"/>
      <point x="349" y="926"/>
      <point x="234" y="813"/>
      <point x="202" y="717" type="qcurve"/>
    </contour>
  </outline>
</glyph>
<glyph name="q" format="1">
  <advance width="877"/>
  <unicode hex="0071"/>
  <outline>
    <contour>
      <point x="85" y="519" type="qcurve" smooth="yes"/>
      <point x="85" y="539" type="line" smooth="yes"/>
      <point x="85" y="801"/>
      <point x="255" y="1080"/>
      <point x="381" y="1080" type="qcurve" smooth="yes"/>
      <point x="436" y="1080"/>
      <point x="561" y="1004"/>
      <point x="678" y="801" type="qcurve"/>
      <point x="695" y="1052" type="line"/>
      <point x="739" y="1052" type="line"/>
      <point x="739" y="-416" type="line"/>
      <point x="685" y="-416" type="line"/>
      <point x="685" y="263" type="line"/>
      <point x="557" y="54"/>
      <point x="434" y="-20"/>
      <point x="380" y="-20" type="qcurve" smooth="yes"/>
      <point x="255" y="-20"/>
      <point x="85" y="267"/>
    </contour>
    <contour>
      <point x="143" y="518" type="line" smooth="yes"/>
      <point x="143" y="386"/>
      <point x="260" y="132"/>
      <point x="414" y="132" type="qcurve" smooth="yes"/>
      <point x="537" y="132"/>
      <point x="652" y="262"/>
      <point x="685" y="364" type="qcurve"/>
      <point x="685" y="700" type="line"/>
      <point x="654" y="799"/>
      <point x="537" y="928"/>
      <point x="416" y="928" type="qcurve" smooth="yes"/>
      <point x="260" y="928"/>
      <point x="143" y="671"/>
      <point x="143" y="539" type="qcurve" smooth="yes"/>
    </contour>
  </outline>
</glyph>
<glyph name="r" format="1">
  <advance width="548"/>
  <unicode hex="0072"/>
  <outline>
    <contour>
      <point x="148" y="0" type="line"/>
      <point x="148" y="1052" type="line"/>
      <point x="189" y="1052" type="line"/>
      <point x="197" y="917" type="line"/>
      <point x="281" y="917" type="line"/>
      <point x="317" y="990"/>
      <point x="415" y="1082"/>
      <point x="453" y="1082" type="qcurve" smooth="yes"/>
      <point x="438" y="1082"/>
      <point x="479" y="1072"/>
      <point x="471" y="1076" type="qcurve"/>
      <point x="471" y="913" type="line"/>
      <point x="531" y="900"/>
      <point x="497" y="904"/>
      <point x="446" y="904" type="qcurve" smooth="yes"/>
      <point x="338" y="904"/>
      <point x="232" y="800"/>
      <point x="202" y="711" type="qcurve"/>
      <point x="202" y="0" type="line"/>
    </contour>
  </outline>
</glyph>
<glyph name="s" format="1">
  <advance width="746"/>
  <unicode hex="0073"/>
  <outline>
    <contour>
      <point x="80" y="312" type="line"/>
      <point x="134" y="312" type="line"/>
      <point x="134" y="307" type="line" smooth="yes"/>
      <point x="134" y="229"/>
      <point x="263" y="121"/>
      <point x="379" y="121" type="qcurve" smooth="yes"/>
      <point x="502" y="121"/>
      <point x="613" y="223"/>
      <point x="613" y="275" type="qcurve" smooth="yes"/>
      <point x="613" y="317"/>
      <point x="529" y="425"/>
      <point x="368" y="467" type="qcurve" smooth="yes"/>
      <point x="253" y="496"/>
      <point x="110" y="633"/>
      <point x="110" y="770" type="qcurve" smooth="yes"/>
      <point x="110" y="913"/>
      <point x="264" y="1084"/>
      <point x="375" y="1084" type="qcurve" smooth="yes"/>
      <point x="492" y="1084"/>
      <point x="650" y="914"/>
      <point x="650" y="760" type="qcurve" smooth="yes"/>
      <point x="650" y="757" type="line"/>
      <point x="596" y="757" type="line"/>
      <point x="596" y="759" type="line" smooth="yes"/>
      <point x="596" y="805"/>
      <point x="495" y="932"/>
      <point x="375" y="932" type="qcurve" smooth="yes"/>
      <point x="257" y="932"/>
      <point x="164" y="832"/>
      <point x="164" y="788" type="qcurve" smooth="yes"/>
      <point x="164" y="748"/>
      <point x="261" y="659"/>
      <point x="412" y="617" type="qcurve" smooth="yes"/>
      <point x="529" y="585"/>
      <point x="666" y="447"/>
      <point x="666" y="289" type="qcurve" smooth="yes"/>
      <point x="666" y="134"/>
      <point x="497" y="-30"/>
      <point x="378" y="-30" type="qcurve" smooth="yes"/>
      <point x="246" y="-30"/>
      <point x="80" y="142"/>
      <point x="80" y="309" type="qcurve" smooth="yes"/>
    </contour>
  </outline>
</glyph>
<glyph name="t" format="1">
  <advance width="473"/>
  <unicode hex="0074"/>
  <outline>
    <contour>
      <point x="0" y="910" type="line"/>
      <point x="0" y="1052" type="line"/>
      <point x="472" y="1052" type="line"/>
      <point x="472" y="910" type="line"/>
    </contour>
    <contour>
      <point x="188" y="212" type="qcurve" smooth="yes"/>
      <point x="188" y="967" type="line"/>
      <point x="188" y="1000" type="line"/>
      <point x="188" y="1315" type="line"/>
      <point x="242" y="1315" type="line"/>
      <point x="242" y="269" type="line" smooth="yes"/>
      <point x="242" y="186"/>
      <point x="312" y="130"/>
      <point x="356" y="130" type="qcurve" smooth="yes"/>
      <point x="387" y="130"/>
      <point x="441" y="142"/>
      <point x="469" y="153" type="qcurve"/>
      <point x="469" y="2" type="line"/>
      <point x="442" y="-10"/>
      <point x="356" y="-29"/>
      <point x="328" y="-29" type="qcurve" smooth="yes"/>
      <point x="276" y="-29"/>
      <point x="188" y="67"/>
    </contour>
  </outline>
</glyph>
<glyph name="u" format="1">
  <advance width="873"/>
  <unicode hex="0075"/>
  <outline>
    <contour>
      <point x="138" y="384" type="qcurve" smooth="yes"/>
      <point x="138" y="1052" type="line"/>
      <point x="191" y="1052" type="line"/>
      <point x="191" y="382" type="line" smooth="yes"/>
      <point x="191" y="287"/>
      <point x="279" y="133"/>
      <point x="398" y="133" type="qcurve" smooth="yes"/>
      <point x="509" y="133"/>
      <point x="631" y="214"/>
      <point x="671" y="320" type="qcurve"/>
      <point x="671" y="1052" type="line"/>
      <point x="725" y="1052" type="line"/>
      <point x="725" y="0" type="line"/>
      <point x="683" y="0" type="line"/>
      <point x="670" y="269" type="line"/>
      <point x="558" y="64"/>
      <point x="432" y="-24"/>
      <point x="374" y="-24" type="qcurve" smooth="yes"/>
      <point x="281" y="-24"/>
      <point x="138" y="152"/>
    </contour>
    <contour>
      <point x="430" y="1052" type="move" name="top"/>
    </contour>
  </outline>
</glyph>
<glyph name="v" format="1">
  <advance width="676"/>
  <unicode hex="0076"/>
  <outline>
    <contour>
      <point x="0" y="1052" type="line"/>
      <point x="66" y="1052" type="line"/>
      <point x="274" y="343" type="line" smooth="yes"/>
      <point x="274" y="341"/>
      <point x="288" y="262"/>
      <point x="292" y="200" type="qcurve"/>
      <point x="384" y="200" type="line"/>
      <point x="389" y="262"/>
      <point x="403" y="340"/>
      <point x="415" y="377" type="qcurve" smooth="yes"/>
      <point x="612" y="1052" type="line"/>
      <point x="676" y="1052" type="line"/>
      <point x="356" y="0" type="line"/>
      <point x="322" y="0" type="line"/>
    </contour>
  </outline>
</glyph>
<glyph name="w" format="1">
  <advance width="1174"/>
  <unicode hex="0077"/>
  <outline>
    <contour>
      <point x="24" y="1052" type="line"/>
      <point x="91" y="1052" type="line"/>
      <point x="240" y="382" type="line" smooth="yes"/>
      <point x="250" y="340"/>
      <point x="267" y="261"/>
      <point x="271" y="200" type="qcurve"/>
      <point x="363" y="200" type="line"/>
      <point x="368" y="262"/>
      <point x="383" y="339"/>
      <point x="393" y="380" type="qcurve" smooth="yes"/>
      <point x="566" y="1052" type="line"/>
      <point x="609" y="1052" type="line"/>
      <point x="792" y="380" type="line" smooth="yes"/>
      <point x="802" y="341"/>
      <point x="814" y="263"/>
      <point x="819" y="200" type="qcurve"/>
      <point x="911" y="200" type="line"/>
      <point x="915" y="262"/>
      <point x="928" y="341"/>
      <point x="937" y="382" type="qcurve" smooth="yes"/>
      <point x="1084" y="1052" type="line"/>
      <point x="1150" y="1052" type="line"/>
      <point x="891" y="0" type="line"/>
      <point x="851" y="0" type="line"/>
      <point x="648" y="695" type="line" smooth="yes"/>
      <point x="646" y="699"/>
      <point x="629" y="776"/>
      <point x="625" y="837" type="qcurve"/>
      <point x="533" y="837" type="line"/>
      <point x="529" y="776"/>
      <point x="511" y="696"/>
      <point x="501" y="657" type="qcurve" smooth="yes"/>
      <point x="325" y="0" type="line"/>
      <point x="284" y="0" type="line"/>
    </contour>
  </outline>
</glyph>
<glyph name="x" format="1">
  <advance width="720"/>
  <unicode hex="0078"/>
  <outline>
    <contour>
      <point x="24" y="0" type="line"/>
      <point x="345" y="590" type="line"/>
      <point x="353" y="590" type="line"/>
      <point x="585" y="1052" type="line"/>
      <point x="679" y="1052" type="line"/>
      <point x="370" y="471" type="line"/>
      <point x="364" y="471" type="line"/>
      <point x="120" y="0" type="line"/>
    </contour>
    <contour>
      <point x="40" y="1052" type="line"/>
      <point x="136" y="1052" type="line"/>
      <point x="357" y="610" type="line"/>
      <point x="369" y="610" type="line"/>
      <point x="696" y="0" type="line"/>
      <point x="598" y="0" type="line"/>
      <point x="358" y="471" type="line"/>
      <point x="349" y="471" type="line"/>
    </contour>
  </outline>
</glyph>
<glyph name="y" format="1">
  <advance width="683"/>
  <unicode hex="0079"/>
  <outline>
    <contour>
      <point x="51" y="-425" type="qcurve"/>
      <point x="51" y="-302" type="line"/>
      <point x="-12" y="-263"/>
      <point x="46" y="-275"/>
      <point x="105" y="-275" type="qcurve" smooth="yes"/>
      <point x="190" y="-275"/>
      <point x="276" y="-188"/>
      <point x="306" y="-78" type="qcurve" smooth="yes"/>
      <point x="332" y="11" type="line"/>
      <point x="24" y="1052" type="line"/>
      <point x="98" y="1052" type="line"/>
      <point x="283" y="380" type="line" smooth="yes"/>
      <point x="294" y="341"/>
      <point x="308" y="262"/>
      <point x="312" y="200" type="qcurve"/>
      <point x="404" y="200" type="line"/>
      <point x="409" y="261"/>
      <point x="425" y="340"/>
      <point x="435" y="379" type="qcurve" smooth="yes"/>
      <point x="612" y="1052" type="line"/>
      <point x="683" y="1052" type="line"/>
      <point x="330" y="-187" type="line" smooth="yes"/>
      <point x="309" y="-262"/>
      <point x="200" y="-437"/>
      <point x="118" y="-437" type="qcurve" smooth="yes"/>
      <point x="119" y="-437"/>
      <point x="53" y="-426"/>
    </contour>
    <contour>
      <point x="355" y="1052" type="move" name="top"/>
    </contour>
  </outline>
</glyph>
<glyph name="z" format="1">
  <advance width="721"/>
  <unicode hex="007A"/>
  <outline>
    <contour>
      <point x="68" y="0" type="line"/>
      <point x="68" y="156" type="line"/>
      <point x="537" y="899" type="line"/>
      <point x="74" y="899" type="line"/>
      <point x="74" y="1052" type="line"/>
      <point x="636" y="1052" type="line"/>
      <point x="636" y="901" type="line"/>
      <point x="163" y="152" type="line"/>
      <point x="659" y="152" type="line"/>
      <point x="659" y="0" type="line"/>
    </contour>
  </outline>
</glyph>
<glyph name="bar" format="1">
  <advance width="458"/>
  <unicode hex="007C"/>
  <outline>
    <contour>
      <point x="210" y="-420" type="line"/>
      <point x="210" y="1456" type="line"/>
      <point x="248" y="1456" type="line"/>
      <point x="248" y="-420" type="line"/>
    </contour>
  </outline>
</glyph>
<glyph name="braceright" format="1">
  <advance width="493"/>
  <unicode hex="007D"/>
  <outline>
    <contour>
      <point x="250" y="362" type="qcurve" smooth="yes"/>
      <point x="293" y="150" type="line" smooth="yes"/>
      <point x="331" y="-40"/>
      <point x="104" y="-312"/>
      <point x="22" y="-312" type="qcurve"/>
      <point x="22" y="-166" type="line"/>
      <point x="124" y="-166"/>
      <point x="258" y="11"/>
      <point x="241" y="96" type="qcurve" smooth="yes"/>
      <point x="199" y="308" type="line" smooth="yes"/>
      <point x="175" y="427"/>
      <point x="234" y="558"/>
      <point x="308" y="579" type="qcurve"/>
      <point x="233" y="604"/>
      <point x="173" y="731"/>
      <point x="199" y="850" type="qcurve" smooth="yes"/>
      <point x="233" y="1012" type="line" smooth="yes"/>
      <point x="259" y="1137"/>
      <point x="124" y="1315"/>
      <point x="22" y="1315" type="qcurve"/>
      <point x="22" y="1460" type="line"/>
      <point x="104" y="1460"/>
      <point x="332" y="1187"/>
      <point x="293" y="998" type="qcurve" smooth="yes"/>
      <point x="250" y="796" type="line" smooth="yes"/>
      <point x="235" y="723"/>
      <point x="352" y="645"/>
      <point x="429" y="645" type="qcurve"/>
      <point x="429" y="513" type="line"/>
      <point x="352" y="513"/>
      <point x="236" y="435"/>
    </contour>
  </outline>
</glyph>
<glyph name="asciitilde" format="1">
  <advance width="855"/>
  <unicode hex="007E"/>
  <outline>
    <contour>
      <point x="438" y="680" type="qcurve" smooth="yes"/>
      <point x="458" y="659"/>
      <point x="528" y="611"/>
      <point x="609" y="611" type="qcurve" smooth="yes"/>
      <point x="695" y="611"/>
      <point x="756" y="733"/>
      <point x="756" y="803" type="qcurve"/>
      <point x="806" y="803" type="line"/>
      <point x="806" y="628"/>
      <point x="675" y="432"/>
      <point x="595" y="432" type="qcurve" smooth="yes"/>
      <point x="557" y="432"/>
      <point x="470" y="478"/>
      <point x="427" y="522" type="qcurve" smooth="yes"/>
      <point x="373" y="576"/>
      <point x="299" y="630"/>
      <point x="218" y="630" type="qcurve" smooth="yes"/>
      <point x="131" y="630"/>
      <point x="70" y="506"/>
      <point x="70" y="436" type="qcurve"/>
      <point x="20" y="436" type="line"/>
      <point x="20" y="611"/>
      <point x="152" y="807"/>
      <point x="231" y="807" type="qcurve" smooth="yes"/>
      <point x="270" y="807"/>
      <point x="357" y="765"/>
    </contour>
  </outline>
</glyph>
<glyph name="exclamdown" format="1">
  <advance width="475"/>
  <unicode hex="00A1"/>
  <outline>
    <contour>
      <point x="221" y="766" type="line"/>
      <point x="254" y="766" type="line"/>
      <point x="265" y="-279" type="line"/>
      <point x="209" y="-279" type="line"/>
    </contour>
    <contour>
      <point x="189" y="1083" type="qcurve" smooth="yes"/>
      <point x="189" y="1151"/>
      <point x="225" y="1199"/>
      <point x="237" y="1199" type="qcurve" smooth="yes"/>
      <point x="248" y="1199"/>
      <point x="286" y="1150"/>
      <point x="286" y="1082" type="qcurve" smooth="yes"/>
      <point x="286" y="1013"/>
      <point x="248" y="965"/>
      <point x="237" y="965" type="qcurve" smooth="yes"/>
      <point x="225" y="965"/>
      <point x="189" y="1013"/>
    </contour>
  </outline>
</glyph>
<glyph name="cent" format="1">
  <advance width="874"/>
  <unicode hex="00A2"/>
  <outline>
    <contour>
      <point x="422" y="540" type="line"/>
      <point x="422" y="953" type="line"/>
      <point x="417" y="981" type="line"/>
      <point x="417" y="1318" type="line"/>
      <point x="442" y="1318" type="line"/>
      <point x="442" y="983" type="line"/>
      <point x="438" y="949" type="line"/>
      <point x="438" y="540" type="line"/>
    </contour>
    <contour>
      <point x="417" y="-245" type="line"/>
      <point x="417" y="77" type="line"/>
      <point x="422" y="107" type="line"/>
      <point x="422" y="540" type="line"/>
      <point x="438" y="540" type="line"/>
      <point x="438" y="106" type="line"/>
      <point x="442" y="71" type="line"/>
      <point x="442" y="-245" type="line"/>
    </contour>
    <contour>
      <point x="84" y="531" type="qcurve" smooth="yes"/>
      <point x="84" y="553" type="line" smooth="yes"/>
      <point x="84" y="797"/>
      <point x="283" y="1082"/>
      <point x="429" y="1082" type="qcurve" smooth="yes"/>
      <point x="581" y="1082"/>
      <point x="734" y="855"/>
      <point x="734" y="693" type="qcurve" smooth="yes"/>
      <point x="734" y="690" type="line"/>
      <point x="688" y="690" type="line"/>
      <point x="688" y="693" type="line" smooth="yes"/>
      <point x="688" y="747"/>
      <point x="581" y="930"/>
      <point x="429" y="930" type="qcurve" smooth="yes"/>
      <point x="277" y="930"/>
      <point x="139" y="699"/>
      <point x="139" y="553" type="qcurve" smooth="yes"/>
      <point x="139" y="531" type="line" smooth="yes"/>
      <point x="139" y="387"/>
      <point x="274" y="142"/>
      <point x="429" y="142" type="qcurve" smooth="yes"/>
      <point x="582" y="142"/>
      <point x="688" y="290"/>
      <point x="688" y="347" type="qcurve" smooth="yes"/>
      <point x="688" y="357" type="line"/>
      <point x="734" y="357" type="line"/>
      <point x="734" y="347" type="line" smooth="yes"/>
      <point x="734" y="208"/>
      <point x="587" y="-10"/>
      <point x="429" y="-10" type="qcurve" smooth="yes"/>
      <point x="271" y="-10"/>
      <point x="84" y="295"/>
    </contour>
  </outline>
</glyph>
<glyph name="guillemetleft" format="1">
  <advance width="837"/>
  <unicode hex="00AB"/>
  <outline>
    <contour>
      <point x="340" y="203" type="line"/>
      <point x="78" y="573" type="line"/>
      <point x="78" y="630" type="line"/>
      <point x="340" y="999" type="line"/>
      <point x="409" y="999" type="line"/>
      <point x="171" y="601" type="line"/>
      <point x="409" y="203" type="line"/>
    </contour>
    <contour>
      <point x="708" y="203" type="line"/>
      <point x="446" y="573" type="line"/>
      <point x="446" y="630" type="line"/>
      <point x="708" y="999" type="line"/>
      <point x="777" y="999" type="line"/>
      <point x="539" y="601" type="line"/>
      <point x="777" y="203" type="line"/>
    </contour>
  </outline>
</glyph>
<glyph name="degree" format="1">
  <advance width="668"/>
  <unicode hex="00B0"/>
  <outline>
    <contour>
      <point x="128" y="1151" type="qcurve" smooth="yes"/>
      <point x="128" y="1309"/>
      <point x="260" y="1477"/>
      <point x="336" y="1477" type="qcurve" smooth="yes"/>
      <point x="410" y="1477"/>
      <point x="540" y="1309"/>
      <point x="540" y="1151" type="qcurve" smooth="yes"/>
      <point x="540" y="996"/>
      <point x="410" y="829"/>
      <point x="336" y="829" type="qcurve" smooth="yes"/>
      <point x="260" y="829"/>
      <point x="128" y="997"/>
    </contour>
    <contour>
      <point x="152" y="1152" type="qcurve" smooth="yes"/>
      <point x="152" y="1097"/>
      <point x="244" y="984"/>
      <point x="336" y="984" type="qcurve" smooth="yes"/>
      <point x="426" y="984"/>
      <point x="516" y="1097"/>
      <point x="516" y="1152" type="qcurve" smooth="yes"/>
      <point x="516" y="1206"/>
      <point x="426" y="1322"/>
      <point x="336" y="1322" type="qcurve" smooth="yes"/>
      <point x="244" y="1322"/>
      <point x="152" y="1207"/>
    </contour>
  </outline>
</glyph>
<glyph name="plusminus" format="1">
  <advance width="892"/>
  <unicode hex="00B1"/>
  <outline>
    <contour>
      <point x="127" y="613" type="line"/>
      <point x="127" y="775" type="line"/>
      <point x="765" y="775" type="line"/>
      <point x="765" y="613" type="line"/>
    </contour>
    <contour>
      <point x="423" y="229" type="line"/>
      <point x="423" y="1207" type="line"/>
      <point x="467" y="1207" type="line"/>
      <point x="467" y="229" type="line"/>
    </contour>
    <contour>
      <point x="141" y="1" type="line"/>
      <point x="141" y="163" type="line"/>
      <point x="747" y="163" type="line"/>
      <point x="747" y="1" type="line"/>
    </contour>
  </outline>
</glyph>
<glyph name="acute" format="1">
  <advance width="855"/>
  <unicode hex="00B4"/>
  <outline>
    <contour>
      <point x="475" y="1457" type="line"/>
      <point x="585" y="1457" type="line"/>
      <point x="371" y="1153" type="line"/>
      <point x="317" y="1153" type="line"/>
      <point x="317" y="1185" type="line"/>
    </contour>
    <contour>
      <point x="350" y="1052" type="move" name="_top"/>
    </contour>
  </outline>
</glyph>
<glyph name="mu.math" format="1">
  <advance width="882"/>
  <unicode hex="00B5"/>
  <outline>
    <contour>
      <point x="431" y="-21" type="qcurve" smooth="yes"/>
      <point x="404" y="-21"/>
      <point x="311" y="14"/>
      <point x="195" y="144" type="qcurve"/>
      <point x="195" y="-416" type="line"/>
      <point x="148" y="-416" type="line"/>
      <point x="148" y="1052" type="line"/>
      <point x="200" y="1052" type="line"/>
      <point x="200" y="460" type="line"/>
      <point x="200" y="272"/>
      <point x="318" y="131"/>
      <point x="424" y="131" type="qcurve" smooth="yes"/>
      <point x="543" y="131"/>
      <point x="651" y="220"/>
      <point x="681" y="311" type="qcurve"/>
      <point x="681" y="1052" type="line"/>
      <point x="734" y="1052" type="line"/>
      <point x="734" y="0" type="line"/>
      <point x="693" y="0" type="line"/>
      <point x="679" y="252" type="line"/>
      <point x="569" y="47"/>
      <point x="471" y="-21"/>
    </contour>
  </outline>
</glyph>
<glyph name="periodcentered" format="1">
  <advance width="434"/>
  <unicode hex="00B7"/>
  <outline>
    <contour>
      <point x="161" y="729" type="qcurve" smooth="yes"/>
      <point x="161" y="799"/>
      <point x="201" y="853"/>
      <point x="217" y="853" type="qcurve" smooth="yes"/>
      <point x="233" y="853"/>
      <point x="273" y="799"/>
      <point x="273" y="729" type="qcurve" smooth="yes"/>
      <point x="273" y="660"/>
      <point x="233" y="606"/>
      <point x="217" y="606" type="qcurve" smooth="yes"/>
      <point x="201" y="606"/>
      <point x="161" y="660"/>
    </contour>
  </outline>
</glyph>
<glyph name="questiondown" format="1">
  <advance width="737"/>
  <unicode hex="00BF"/>
  <outline>
    <contour>
      <point x="389" y="766" type="line"/>
      <point x="438" y="766" type="line"/>
      <point x="438" y="761" type="line" smooth="yes"/>
      <point x="438" y="606"/>
      <point x="390" y="476"/>
      <point x="337" y="416" type="qcurve" smooth="yes"/>
      <point x="241" y="304"/>
      <point x="145" y="154"/>
      <point x="145" y="75" type="qcurve" smooth="yes"/>
      <point x="145" y="-9"/>
      <point x="255" y="-138"/>
      <point x="382" y="-138" type="qcurve" smooth="yes"/>
      <point x="508" y="-138"/>
      <point x="629" y="-17"/>
      <point x="629" y="59" type="qcurve" smooth="yes"/>
      <point x="629" y="79" type="line"/>
      <point x="677" y="79" type="line"/>
      <point x="677" y="59" type="line" smooth="yes"/>
      <point x="677" y="-124"/>
      <point x="504" y="-300"/>
      <point x="382" y="-300" type="qcurve" smooth="yes"/>
      <point x="260" y="-300"/>
      <point x="96" y="-113"/>
      <point x="96" y="80" type="qcurve" smooth="yes"/>
      <point x="96" y="237"/>
      <point x="211" y="425"/>
      <point x="270" y="487" type="qcurve" smooth="yes"/>
      <point x="349" y="571"/>
      <point x="389" y="724"/>
      <point x="389" y="764" type="qcurve" smooth="yes"/>
    </contour>
    <contour>
      <point x="454" y="1082" type="qcurve" smooth="yes"/>
      <point x="454" y="1013"/>
      <point x="416" y="965"/>
      <point x="406" y="965" type="qcurve" smooth="yes"/>
      <point x="395" y="965"/>
      <point x="358" y="1013"/>
      <point x="358" y="1082" type="qcurve" smooth="yes"/>
      <point x="358" y="1150"/>
      <point x="395" y="1198"/>
      <point x="406" y="1198" type="qcurve" smooth="yes"/>
      <point x="416" y="1198"/>
      <point x="454" y="1150"/>
    </contour>
  </outline>
</glyph>
<glyph name="Thorn" format="1">
  <advance width="942"/>
  <unicode hex="00DE"/>
  <outline>
    <contour>
      <point x="225" y="290" type="line"/>
      <point x="225" y="0" type="line"/>
      <point x="170" y="0" type="line"/>
      <point x="170" y="1456" type="line"/>
      <point x="225" y="1456" type="line"/>
      <point x="225" y="1174" type="line"/>
      <point x="523" y="1174" type="line" smooth="yes"/>
      <point x="689" y="1174"/>
      <point x="894" y="951"/>
      <point x="894" y="740" type="qcurve" smooth="yes"/>
      <point x="894" y="512"/>
      <point x="689" y="289"/>
      <point x="523" y="290" type="qcurve" smooth="yes"/>
    </contour>
    <contour>
      <point x="224" y="447" type="line"/>
      <point x="523" y="447" type="line" smooth="yes"/>
      <point x="701" y="447"/>
      <point x="839" y="637"/>
      <point x="839" y="739" type="qcurve" smooth="yes"/>
      <point x="839" y="831"/>
      <point x="701" y="1016"/>
      <point x="523" y="1017" type="qcurve" smooth="yes"/>
      <point x="224" y="1017" type="line"/>
    </contour>
  </outline>
</glyph>
<glyph name="OE" format="1">
  <advance width="1556"/>
  <unicode hex="0152"/>
  <outline>
    <contour>
      <point x="874" y="0" type="line"/>
      <point x="874" y="1456" type="line"/>
      <point x="1479" y="1456" type="line"/>
      <point x="1479" y="1298" type="line"/>
      <point x="925" y="1298" type="line"/>
      <point x="925" y="830" type="line"/>
      <point x="1401" y="830" type="line"/>
      <point x="1401" y="673" type="line"/>
      <point x="925" y="673" type="line"/>
      <point x="925" y="157" type="line"/>
      <point x="1488" y="157" type="line"/>
      <point x="1488" y="0" type="line"/>
    </contour>
    <contour>
      <point x="115" y="682" type="qcurve" smooth="yes"/>
      <point x="115" y="774" type="line" smooth="yes"/>
      <point x="115" y="1119"/>
      <point x="397" y="1486"/>
      <point x="584" y="1486" type="qcurve" smooth="yes"/>
      <point x="625" y="1486"/>
      <point x="766" y="1425"/>
      <point x="802" y="1395" type="qcurve"/>
      <point x="802" y="1322" type="line"/>
      <point x="854" y="1232"/>
      <point x="707" y="1322"/>
      <point x="584" y="1322" type="qcurve" smooth="yes"/>
      <point x="386" y="1322"/>
      <point x="173" y="1013"/>
      <point x="173" y="776" type="qcurve" smooth="yes"/>
      <point x="173" y="682" type="line" smooth="yes"/>
      <point x="173" y="445"/>
      <point x="389" y="143"/>
      <point x="567" y="143" type="qcurve" smooth="yes"/>
      <point x="707" y="143"/>
      <point x="849" y="226"/>
      <point x="852" y="287" type="qcurve"/>
      <point x="798" y="98" type="line"/>
      <point x="755" y="44"/>
      <point x="624" y="-20"/>
      <point x="551" y="-20" type="qcurve" smooth="yes"/>
      <point x="386" y="-20"/>
      <point x="115" y="339"/>
    </contour>
  </outline>
</glyph>
<glyph name="quoteleft" format="1">
  <advance width="289"/>
  <unicode hex="2018"/>
  <outline>
    <contour>
      <point x="126" y="1073" type="line"/>
      <point x="126" y="1194" type="line" smooth="yes"/>
      <point x="126" y="1310"/>
      <point x="193" y="1497"/>
      <point x="223" y="1527" type="qcurve"/>
      <point x="276" y="1485" type="line"/>
      <point x="230" y="1404"/>
      <point x="177" y="1252"/>
      <point x="177" y="1197" type="qcurve" smooth="yes"/>
      <point x="177" y="1073" type="line"/>
    </contour>
  </outline>
</glyph>
<glyph name="ellipsis" format="1">
  <advance width="1362"/>
  <unicode hex="2026"/>
  <outline>
    <contour>
      <point x="625" y="101" type="qcurve" smooth="yes"/>
      <point x="625" y="171"/>
      <point x="665" y="225"/>
      <point x="681" y="225" type="qcurve" smooth="yes"/>
      <point x="697" y="225"/>
      <point x="737" y="171"/>
      <point x="737" y="101" type="qcurve" smooth="yes"/>
      <point x="737" y="32"/>
      <point x="697" y="-22"/>
      <point x="681" y="-22" type="qcurve" smooth="yes"/>
      <point x="665" y="-22"/>
      <point x="625" y="32"/>
    </contour>
    <contour>
      <point x="1089" y="101" type="qcurve" smooth="yes"/>
      <point x="1089" y="171"/>
      <point x="1129" y="225"/>
      <point x="1145" y="225" type="qcurve" smooth="yes"/>
      <point x="1161" y="225"/>
      <point x="1201" y="171"/>
      <point x="1201" y="101" type="qcurve" smooth="yes"/>
      <point x="1201" y="32"/>
      <point x="1161" y="-22"/>
      <point x="1145" y="-22" type="qcurve" smooth="yes"/>
      <point x="1129" y="-22"/>
      <point x="1089" y="32"/>
    </contour>
    <contour>
      <point x="161" y="101" type="qcurve" smooth="yes"/>
      <point x="161" y="171"/>
      <point x="201" y="225"/>
      <point x="217" y="225" type="qcurve" smooth="yes"/>
      <point x="233" y="225"/>
      <point x="273" y="171"/>
      <point x="273" y="101" type="qcurve" smooth="yes"/>
      <point x="273" y="32"/>
      <point x="233" y="-22"/>
      <point x="217" y="-22" type="qcurve" smooth="yes"/>
      <point x="201" y="-22"/>
      <point x="161" y="32"/>
    </contour>
  </outline>
</glyph>
<glyph name="won" format="1">
  <advance width="1096"/>
  <unicode hex="20A9"/>
  <outline>
    <contour>
      <point x="281" y="0" type="line"/>
      <point x="70" y="1456" type="line"/>
      <point x="122" y="1456" type="line"/>
      <point x="278" y="359" type="line" smooth="yes"/>
      <point x="282" y="334"/>
      <point x="283" y="312"/>
      <point x="287" y="254" type="qcurve"/>
      <point x="394" y="254" type="line"/>
      <point x="400" y="305"/>
      <point x="405" y="326"/>
      <point x="401" y="311" type="qcurve" smooth="yes"/>
      <point x="523" y="759" type="line"/>
      <point x="576" y="759" type="line"/>
      <point x="690" y="353" type="line" smooth="yes"/>
      <point x="697" y="327"/>
      <point x="705" y="302"/>
      <point x="711" y="254" type="qcurve"/>
      <point x="818" y="254" type="line"/>
      <point x="820" y="278"/>
      <point x="818" y="313"/>
      <point x="825" y="359" type="qcurve" smooth="yes"/>
      <point x="976" y="1456" type="line"/>
      <point x="1026" y="1456" type="line"/>
      <point x="817" y="0" type="line"/>
      <point x="747" y="0" type="line"/>
      <point x="622" y="461" type="line" smooth="yes"/>
      <point x="616" y="485"/>
      <point x="609" y="515"/>
      <point x="609" y="568" type="qcurve"/>
      <point x="498" y="568" type="line"/>
      <point x="492" y="513"/>
      <point x="489" y="484"/>
      <point x="482" y="463" type="qcurve" smooth="yes"/>
      <point x="344" y="0" type="line"/>
    </contour>
    <contour>
      <point x="10" y="1159" type="line"/>
      <point x="10" y="1310" type="line"/>
      <point x="1086" y="1310" type="line"/>
      <point x="1086" y="1159" type="line"/>
    </contour>
    <contour>
      <point x="28" y="833" type="line"/>
      <point x="28" y="984" type="line"/>
      <point x="1069" y="984" type="line"/>
      <point x="1069" y="833" type="line"/>
    </contour>
  </outline>
</glyph>
<glyph name="numero" format="1">
  <advance width="2043"/>
  <unicode hex="2116"/>
  <outline>
    <contour>
      <point x="170" y="0" type="line"/>
      <point x="170" y="1456" type="line"/>
      <point x="238" y="1456" type="line"/>
      <point x="769" y="441" type="line" smooth="yes"/>
      <point x="776" y="427"/>
      <point x="809" y="362"/>
      <point x="822" y="326" type="qcurve"/>
      <point x="932" y="326" type="line"/>
      <point x="932" y="308"/>
      <point x="930" y="380"/>
      <point x="930" y="441" type="qcurve" smooth="yes"/>
      <point x="930" y="1456" type="line"/>
      <point x="979" y="1456" type="line"/>
      <point x="979" y="0" type="line"/>
      <point x="910" y="0" type="line"/>
      <point x="382" y="1012" type="line" smooth="yes"/>
      <point x="374" y="1027"/>
      <point x="336" y="1093"/>
      <point x="322" y="1127" type="qcurve"/>
      <point x="223" y="1127" type="line"/>
      <point x="224" y="1106"/>
      <point x="219" y="994"/>
      <point x="219" y="1012" type="qcurve" smooth="yes"/>
      <point x="219" y="0" type="line"/>
    </contour>
    <contour>
      <point x="1212" y="962" type="qcurve" smooth="yes"/>
      <point x="1212" y="981" type="line" smooth="yes"/>
      <point x="1212" y="1218"/>
      <point x="1415" y="1475"/>
      <point x="1567" y="1475" type="qcurve" smooth="yes"/>
      <point x="1727" y="1475"/>
      <point x="1927" y="1224"/>
      <point x="1927" y="981" type="qcurve" smooth="yes"/>
      <point x="1927" y="962" type="line" smooth="yes"/>
      <point x="1927" y="725"/>
      <point x="1722" y="471"/>
      <point x="1569" y="471" type="qcurve" smooth="yes"/>
      <point x="1415" y="471"/>
      <point x="1212" y="725"/>
    </contour>
    <contour>
      <point x="1259" y="983" type="qcurve" smooth="yes"/>
      <point x="1259" y="964" type="line" smooth="yes"/>
      <point x="1259" y="843"/>
      <point x="1398" y="622"/>
      <point x="1569" y="622" type="qcurve" smooth="yes"/>
      <point x="1738" y="622"/>
      <point x="1874" y="843"/>
      <point x="1874" y="964" type="qcurve" smooth="yes"/>
      <point x="1874" y="983" type="line" smooth="yes"/>
      <point x="1874" y="1102"/>
      <point x="1738" y="1323"/>
      <point x="1567" y="1323" type="qcurve" smooth="yes"/>
      <point x="1398" y="1323"/>
      <point x="1259" y="1102"/>
    </contour>
    <contour>
      <point x="1245" y="129" type="line"/>
      <point x="1245" y="295" type="line"/>
      <point x="1899" y="295" type="line"/>
      <point x="1899" y="129" type="line"/>
    </contour>
  </outline>
</glyph>
<glyph name="f_f_i" format="1">
  <advance width="1318"/>
  <unicode hex="FB03"/>
  <outline>
    <contour>
      <point x="689" y="0" type="line"/>
      <point x="635" y="0" type="line"/>
      <point x="635" y="1176" type="line" smooth="yes"/>
      <point x="635" y="1376"/>
      <point x="791" y="1557"/>
      <point x="904" y="1557" type="qcurve" smooth="yes"/>
      <point x="932" y="1557"/>
      <point x="1042" y="1522"/>
      <point x="1089" y="1501" type="qcurve"/>
      <point x="1069" y="1373" type="line"/>
      <point x="1101" y="1358"/>
      <point x="1003" y="1396"/>
      <point x="915" y="1396" type="qcurve" smooth="yes"/>
      <point x="786" y="1396"/>
      <point x="689" y="1265"/>
      <point x="689" y="1176" type="qcurve" smooth="yes"/>
    </contour>
    <contour>
      <point x="913" y="1052" type="line"/>
      <point x="913" y="910" type="line"/>
      <point x="498" y="910" type="line"/>
      <point x="498" y="1052" type="line"/>
    </contour>
    <contour>
      <point x="1161" y="1052" type="line"/>
      <point x="1161" y="0" type="line"/>
      <point x="1107" y="0" type="line"/>
      <point x="1107" y="1052" type="line"/>
    </contour>
    <contour>
      <point x="217" y="0" type="line"/>
      <point x="163" y="0" type="line"/>
      <point x="163" y="1176" type="line" smooth="yes"/>
      <point x="163" y="1376"/>
      <point x="319" y="1557"/>
      <point x="432" y="1557" type="qcurve" smooth="yes"/>
      <point x="460" y="1557"/>
      <point x="548" y="1533"/>
      <point x="585" y="1517" type="qcurve"/>
      <point x="566" y="1394" type="line"/>
      <point x="593" y="1379"/>
      <point x="531" y="1396"/>
      <point x="443" y="1396" type="qcurve" smooth="yes"/>
      <point x="314" y="1396"/>
      <point x="217" y="1265"/>
      <point x="217" y="1176" type="qcurve" smooth="yes"/>
    </contour>
    <contour>
      <point x="441" y="1052" type="line"/>
      <point x="441" y="910" type="line"/>
      <point x="26" y="910" type="line"/>
      <point x="26" y="1052" type="line"/>
    </contour>
  </outline>
</glyph>
<glyph name="f_f_l" format="1">
  <advance width="1340"/>
  <unicode hex="FB04"/>
  <outline>
    <contour>
      <point x="1131" y="0" type="line"/>
      <point x="1131" y="1496" type="line"/>
      <point x="1184" y="1496" type="line"/>
      <point x="1184" y="0" type="line"/>
    </contour>
    <contour>
      <point x="689" y="0" type="line"/>
      <point x="635" y="0" type="line"/>
      <point x="635" y="1176" type="line" smooth="yes"/>
      <point x="635" y="1376"/>
      <point x="791" y="1557"/>
      <point x="904" y="1557" type="qcurve" smooth="yes"/>
      <point x="932" y="1557"/>
      <point x="1042" y="1522"/>
      <point x="1089" y="1501" type="qcurve"/>
      <point x="1069" y="1373" type="line"/>
      <point x="1101" y="1358"/>
      <point x="1003" y="1396"/>
      <point x="915" y="1396" type="qcurve" smooth="yes"/>
      <point x="786" y="1396"/>
      <point x="689" y="1265"/>
      <point x="689" y="1176" type="qcurve" smooth="yes"/>
    </contour>
    <contour>
      <point x="913" y="1052" type="line"/>
      <point x="913" y="910" type="line"/>
      <point x="498" y="910" type="line"/>
      <point x="498" y="1052" type="line"/>
    </contour>
    <contour>
      <point x="217" y="0" type="line"/>
      <point x="163" y="0" type="line"/>
      <point x="163" y="1176" type="line" smooth="yes"/>
      <point x="163" y="1376"/>
      <point x="319" y="1557"/>
      <point x="432" y="1557" type="qcurve" smooth="yes"/>
      <point x="460" y="1557"/>
      <point x="548" y="1533"/>
      <point x="585" y="1517" type="qcurve"/>
      <point x="566" y="1394" type="line"/>
      <point x="593" y="1379"/>
      <point x="531" y="1396"/>
      <point x="443" y="1396" type="qcurve" smooth="yes"/>
      <point x="314" y="1396"/>
      <point x="217" y="1265"/>
      <point x="217" y="1176" type="qcurve" smooth="yes"/>
    </contour>
    <contour>
      <point x="441" y="1052" type="line"/>
      <point x="441" y="910" type="line"/>
      <point x="26" y="910" type="line"/>
      <point x="26" y="1052" type="line"/>
    </contour>
  </outline>
</glyph>
<glyph name="seven.pnum" format="1">
  <advance width="655"/>
  <outline>
    <contour>
      <point x="655" y="1456" type="line"/>
      <point x="655" y="1323" type="line"/>
      <point x="191" y="0" type="line"/>
      <point x="121" y="0" type="line"/>
      <point x="592" y="1304" type="line"/>
      <point x="0" y="1304" type="line"/>
      <point x="0" y="1456" type="line"/>
    </contour>
  </outline>
</glyph>
